<?xml version="1.0" encoding="UTF-8" standalone="no"?>
<!DOCTYPE svg PUBLIC "-//W3C//DTD SVG 1.1//EN"
 "http://www.w3.org/Graphics/SVG/1.1/DTD/svg11.dtd">
<!-- Generated by graphviz version 2.43.0 (0)
 -->
<!-- Title: G Pages: 1 -->
<svg width="507pt" height="354pt"
 viewBox="0.00 0.00 507.00 353.60" xmlns="http://www.w3.org/2000/svg" xmlns:xlink="http://www.w3.org/1999/xlink">
<g id="graph0" class="graph" transform="scale(1 1) rotate(0) translate(4 349.6)">
<title>G</title>
<polygon fill="white" stroke="transparent" points="-4,4 -4,-349.6 503,-349.6 503,4 -4,4"/>
<!-- start -->
<g id="node1" class="node">
<title>start</title>
<ellipse fill="#2d2d2d" stroke="#e0e0e0" cx="275" cy="-343.8" rx="1.8" ry="1.8"/>
</g>
<!-- Idle -->
<g id="node2" class="node">
<title>Idle</title>
<polygon fill="#2d2d2d" stroke="#8b5cf6" points="354,-305 196,-305 196,-267 354,-267 354,-305"/>
<text text-anchor="middle" x="275" y="-289.8" font-family="Times,serif" font-size="14.00" fill="#e0e0e0">Idle</text>
<text text-anchor="middle" x="275" y="-274.8" font-family="Times,serif" font-size="14.00" fill="#e0e0e0">(No sprite selected)</text>
</g>
<!-- start&#45;&gt;Idle -->
<g id="edge1" class="edge">
<title>start&#45;&gt;Idle</title>
<path fill="none" stroke="#e0e0e0" d="M275,-341.83C275,-338.47 275,-326.9 275,-315.24"/>
<polygon fill="#e0e0e0" stroke="#e0e0e0" points="278.5,-315.18 275,-305.18 271.5,-315.18 278.5,-315.18"/>
</g>
<!-- Selected -->
<g id="node3" class="node">
<title>Selected</title>
<polygon fill="#2d2d2d" stroke="#8b5cf6" points="408,-216 142,-216 142,-178 408,-178 408,-216"/>
<text text-anchor="middle" x="275" y="-200.8" font-family="Times,serif" font-size="14.00" fill="#e0e0e0">Selected</text>
<text text-anchor="middle" x="275" y="-185.8" font-family="Times,serif" font-size="14.00" fill="#e0e0e0">(Sprite selected, behaviors loaded)</text>
</g>
<!-- Idle&#45;&gt;Selected -->
<g id="edge2" class="edge">
<title>Idle&#45;&gt;Selected</title>
<path fill="none" stroke="#e0e0e0" d="M239.66,-266.88C233.35,-261.97 227.64,-256.02 224,-249 219.02,-239.38 223.23,-230.44 230.98,-222.81"/>
<polygon fill="#e0e0e0" stroke="#e0e0e0" points="233.49,-225.28 238.94,-216.2 229.02,-219.9 233.49,-225.28"/>
<text text-anchor="middle" x="265" y="-237.8" font-family="Times,serif" font-size="14.00" fill="#e0e0e0">Click sprite</text>
</g>
<!-- Selected&#45;&gt;Idle -->
<g id="edge7" class="edge">
<title>Selected&#45;&gt;Idle</title>
<path fill="none" stroke="#e0e0e0" d="M295.61,-216.02C303.79,-225.41 310.33,-237.34 306,-249 304.76,-252.35 303.05,-255.6 301.06,-258.68"/>
<polygon fill="#e0e0e0" stroke="#e0e0e0" points="298.11,-256.78 294.91,-266.88 303.71,-260.98 298.11,-256.78"/>
<text text-anchor="middle" x="363.5" y="-237.8" font-family="Times,serif" font-size="14.00" fill="#e0e0e0">Click elsewhere</text>
</g>
<!-- Editing -->
<g id="node4" class="node">
<title>Editing</title>
<polygon fill="#2d2d2d" stroke="#8b5cf6" points="270,-127 0,-127 0,-89 270,-89 270,-127"/>
<text text-anchor="middle" x="135" y="-111.8" font-family="Times,serif" font-size="14.00" fill="#e0e0e0">Editing</text>
<text text-anchor="middle" x="135" y="-96.8" font-family="Times,serif" font-size="14.00" fill="#e0e0e0">(Parameter changed, pending save)</text>
</g>
<!-- Selected&#45;&gt;Editing -->
<g id="edge3" class="edge">
<title>Selected&#45;&gt;Editing</title>
<path fill="none" stroke="#e0e0e0" d="M171.76,-177.96C155.18,-173.05 141.6,-167.09 136,-160 131.04,-153.72 129.46,-145.51 129.49,-137.53"/>
<polygon fill="#e0e0e0" stroke="#e0e0e0" points="132.99,-137.58 130.3,-127.34 126.01,-137.02 132.99,-137.58"/>
<text text-anchor="middle" x="194.5" y="-148.8" font-family="Times,serif" font-size="14.00" fill="#e0e0e0">Modify behavior</text>
</g>
<!-- Editing&#45;&gt;Selected -->
<g id="edge8" class="edge">
<title>Editing&#45;&gt;Selected</title>
<path fill="none" stroke="#e0e0e0" d="M224.56,-127C234.9,-131.68 244.7,-137.57 253,-145 259.82,-151.1 264.6,-159.68 267.93,-168.07"/>
<polygon fill="#e0e0e0" stroke="#e0e0e0" points="264.66,-169.33 271.19,-177.67 271.29,-167.07 264.66,-169.33"/>
<text text-anchor="middle" x="314" y="-148.8" font-family="Times,serif" font-size="14.00" fill="#e0e0e0">Undo / Cancel</text>
</g>
<!-- Editing&#45;&gt;Editing -->
<g id="edge4" class="edge">
<title>Editing&#45;&gt;Editing</title>
<path fill="none" stroke="#e0e0e0" d="M270.03,-114.35C281.12,-112.97 288,-110.86 288,-108 288,-106.17 285.18,-104.64 280.23,-103.42"/>
<polygon fill="#e0e0e0" stroke="#e0e0e0" points="280.48,-99.91 270.03,-101.65 279.29,-106.81 280.48,-99.91"/>
<text text-anchor="middle" x="327" y="-104.3" font-family="Times,serif" font-size="14.00" fill="#e0e0e0">More edits</text>
</g>
<!-- Saving -->
<g id="node5" class="node">
<title>Saving</title>
<polygon fill="#2d2d2d" stroke="#8b5cf6" points="375,-38 163,-38 163,0 375,0 375,-38"/>
<text text-anchor="middle" x="269" y="-22.8" font-family="Times,serif" font-size="14.00" fill="#e0e0e0">Saving</text>
<text text-anchor="middle" x="269" y="-7.8" font-family="Times,serif" font-size="14.00" fill="#e0e0e0">(POST /api/scenes/{name})</text>
</g>
<!-- Editing&#45;&gt;Saving -->
<g id="edge5" class="edge">
<title>Editing&#45;&gt;Saving</title>
<path fill="none" stroke="#e0e0e0" d="M162.76,-88.97C183.07,-75.79 210.79,-57.79 232.83,-43.49"/>
<polygon fill="#e0e0e0" stroke="#e0e0e0" points="234.79,-46.38 241.27,-38 230.98,-40.51 234.79,-46.38"/>
<text text-anchor="middle" x="292.5" y="-59.8" font-family="Times,serif" font-size="14.00" fill="#e0e0e0">Auto&#45;save (debounced)</text>
</g>
<!-- Saving&#45;&gt;Selected -->
<g id="edge6" class="edge">
<title>Saving&#45;&gt;Selected</title>
<path fill="none" stroke="#e0e0e0" d="M358.12,-38.09C365.82,-42.78 372.69,-48.65 378,-56 405.2,-93.63 398.1,-124.64 368,-160 363.88,-164.84 359.02,-169.04 353.72,-172.67"/>
<polygon fill="#e0e0e0" stroke="#e0e0e0" points="351.81,-169.74 345.09,-177.93 355.45,-175.72 351.81,-169.74"/>
<text text-anchor="middle" x="446.5" y="-104.3" font-family="Times,serif" font-size="14.00" fill="#e0e0e0">Save complete</text>
</g>
</g>
</svg>
