<?xml version="1.0" encoding="UTF-8" standalone="no"?>
<!DOCTYPE svg PUBLIC "-//W3C//DTD SVG 1.1//EN"
 "http://www.w3.org/Graphics/SVG/1.1/DTD/svg11.dtd">
<!-- Generated by graphviz version 2.43.0 (0)
 -->
<!-- Title: ClassRelationships Pages: 1 -->
<svg width="365pt" height="419pt"
 viewBox="0.00 0.00 365.00 419.00" xmlns="http://www.w3.org/2000/svg" xmlns:xlink="http://www.w3.org/1999/xlink">
<g id="graph0" class="graph" transform="scale(1 1) rotate(0) translate(4 415)">
<title>ClassRelationships</title>
<polygon fill="white" stroke="transparent" points="-4,4 -4,-415 361,-415 361,4 -4,4"/>
<g id="clust1" class="cluster">
<title>cluster_Compiler</title>
<polygon fill="white" stroke="blue" stroke-dasharray="5,2" points="8,-8 8,-272.5 156,-272.5 156,-8 8,-8"/>
<text text-anchor="middle" x="82" y="-15.8" font-family="Times,serif" font-size="14.00">Compiler Pipeline</text>
</g>
<g id="clust2" class="cluster">
<title>cluster_Models</title>
<polygon fill="white" stroke="orange" stroke-dasharray="5,2" points="164,-163 164,-403 348,-403 348,-163 164,-163"/>
<text text-anchor="middle" x="256" y="-170.8" font-family="Times,serif" font-size="14.00">Data Models (Pydantic)</text>
</g>
<g id="clust3" class="cluster">
<title>cluster_Theatre</title>
<polygon fill="white" stroke="green" stroke-dasharray="5,2" points="198,-16 198,-127 335,-127 335,-16 198,-16"/>
<text text-anchor="middle" x="266.5" y="-23.8" font-family="Times,serif" font-size="14.00">Theatre Runtime</text>
</g>
<!-- SpriteCompiler -->
<g id="node1" class="node">
<title>SpriteCompiler</title>
<polygon fill="white" stroke="black" points="26,-39.5 26,-126.5 146,-126.5 146,-39.5 26,-39.5"/>
<text text-anchor="middle" x="86" y="-114.5" font-family="Verdana" font-size="10.00">SpriteCompiler</text>
<polyline fill="none" stroke="black" points="26,-107.5 146,-107.5 "/>
<text text-anchor="middle" x="86" y="-95.5" font-family="Verdana" font-size="10.00">&#45; client: GeminiClient</text>
<polyline fill="none" stroke="black" points="26,-88.5 146,-88.5 "/>
<text text-anchor="middle" x="86" y="-76.5" font-family="Verdana" font-size="10.00">&#45; attempts: int</text>
<polyline fill="none" stroke="black" points="26,-69.5 146,-69.5 "/>
<text text-anchor="start" x="34" y="-57.5" font-family="Verdana" font-size="10.00">+ compile_sprite()</text>
<text text-anchor="start" x="34" y="-46.5" font-family="Verdana" font-size="10.00">+ save_metadata()</text>
</g>
<!-- GeminiCompilerClient -->
<g id="node2" class="node">
<title>GeminiCompilerClient</title>
<polygon fill="white" stroke="black" points="16.5,-207 16.5,-264 147.5,-264 147.5,-207 16.5,-207"/>
<text text-anchor="middle" x="82" y="-252" font-family="Verdana" font-size="10.00">GeminiCompilerClient</text>
<polyline fill="none" stroke="black" points="16.5,-245 147.5,-245 "/>
<text text-anchor="middle" x="82" y="-233" font-family="Verdana" font-size="10.00">&#45; model: str</text>
<polyline fill="none" stroke="black" points="16.5,-226 147.5,-226 "/>
<text text-anchor="start" x="24.5" y="-214" font-family="Verdana" font-size="10.00">+ generate_metadata()</text>
</g>
<!-- SpriteCompiler&#45;&gt;GeminiCompilerClient -->
<g id="edge1" class="edge">
<title>SpriteCompiler&#45;&gt;GeminiCompilerClient</title>
<path fill="none" stroke="black" d="M84.86,-126.72C84.28,-148.73 83.57,-175.33 83.01,-196.6"/>
<polygon fill="black" stroke="black" points="82.73,-206.87 78.5,-196.76 82.87,-201.88 83,-196.88 83,-196.88 83,-196.88 82.87,-201.88 87.5,-197 82.73,-206.87 82.73,-206.87"/>
<text text-anchor="middle" x="95.5" y="-147.8" font-family="Verdana" font-size="9.00">uses</text>
</g>
<!-- SpriteMetadata -->
<g id="node3" class="node">
<title>SpriteMetadata</title>
<polygon fill="white" stroke="black" points="172.5,-194.5 172.5,-276.5 303.5,-276.5 303.5,-194.5 172.5,-194.5"/>
<text text-anchor="middle" x="238" y="-264.5" font-family="Verdana" font-size="10.00">SpriteMetadata</text>
<polyline fill="none" stroke="black" points="172.5,-257.5 303.5,-257.5 "/>
<text text-anchor="start" x="180.5" y="-245.5" font-family="Verdana" font-size="10.00">+ name: str</text>
<text text-anchor="start" x="180.5" y="-234.5" font-family="Verdana" font-size="10.00">+ frequency: float</text>
<text text-anchor="start" x="180.5" y="-223.5" font-family="Verdana" font-size="10.00">+ amplitude_y: int</text>
<text text-anchor="start" x="180.5" y="-212.5" font-family="Verdana" font-size="10.00">+ rotation_range: Tuple</text>
<text text-anchor="start" x="180.5" y="-201.5" font-family="Verdana" font-size="10.00">+ z_depth: int</text>
</g>
<!-- SpriteCompiler&#45;&gt;SpriteMetadata -->
<g id="edge2" class="edge">
<title>SpriteCompiler&#45;&gt;SpriteMetadata</title>
<path fill="none" stroke="black" stroke-dasharray="1,5" d="M129.15,-126.72C148.14,-145.53 170.52,-167.68 190.03,-187"/>
<polygon fill="black" stroke="black" points="197.35,-194.26 187.08,-190.42 193.8,-190.74 190.25,-187.22 190.25,-187.22 190.25,-187.22 193.8,-190.74 193.41,-184.02 197.35,-194.26 197.35,-194.26"/>
<text text-anchor="middle" x="175" y="-147.8" font-family="Verdana" font-size="9.00">creates</text>
</g>
<!-- EnvironmentalReaction -->
<g id="node4" class="node">
<title>EnvironmentalReaction</title>
<polygon fill="white" stroke="black" points="199.5,-323.5 199.5,-394.5 330.5,-394.5 330.5,-323.5 199.5,-323.5"/>
<text text-anchor="middle" x="265" y="-382.5" font-family="Verdana" font-size="10.00">EnvironmentalReaction</text>
<polyline fill="none" stroke="black" points="199.5,-375.5 330.5,-375.5 "/>
<text text-anchor="start" x="207.5" y="-363.5" font-family="Verdana" font-size="10.00">+ type: Enum</text>
<text text-anchor="start" x="207.5" y="-352.5" font-family="Verdana" font-size="10.00">+ target: str</text>
<text text-anchor="start" x="207.5" y="-341.5" font-family="Verdana" font-size="10.00">+ max_tilt: float</text>
<text text-anchor="start" x="207.5" y="-330.5" font-family="Verdana" font-size="10.00">+ follow_factor: float</text>
</g>
<!-- SpriteMetadata&#45;&gt;EnvironmentalReaction -->
<g id="edge3" class="edge">
<title>SpriteMetadata&#45;&gt;EnvironmentalReaction</title>
<path fill="none" stroke="black" d="M246.92,-276.62C249.37,-287.69 252.06,-299.79 254.6,-311.2"/>
<polygon fill="black" stroke="black" points="254.67,-311.51 259.87,-316.5 257.27,-323.22 252.07,-318.23 254.67,-311.51"/>
<text text-anchor="middle" x="272.5" y="-297.8" font-family="Verdana" font-size="9.00">contains</text>
</g>
<!-- ParallaxLayer -->
<g id="node5" class="node">
<title>ParallaxLayer</title>
<polygon fill="white" stroke="black" points="215.5,-47.5 215.5,-118.5 316.5,-118.5 316.5,-47.5 215.5,-47.5"/>
<text text-anchor="middle" x="266" y="-106.5" font-family="Verdana" font-size="10.00">ParallaxLayer</text>
<polyline fill="none" stroke="black" points="215.5,-99.5 316.5,-99.5 "/>
<text text-anchor="start" x="223.5" y="-87.5" font-family="Verdana" font-size="10.00">+ z_depth: int</text>
<text text-anchor="start" x="223.5" y="-76.5" font-family="Verdana" font-size="10.00">+ image: Surface</text>
<text text-anchor="start" x="223.5" y="-65.5" font-family="Verdana" font-size="10.00">+ draw()</text>
<text text-anchor="start" x="223.5" y="-54.5" font-family="Verdana" font-size="10.00">+ get_y_at_x()</text>
</g>
<!-- ParallaxLayer&#45;&gt;SpriteMetadata -->
<g id="edge4" class="edge">
<title>ParallaxLayer&#45;&gt;SpriteMetadata</title>
<path fill="none" stroke="black" stroke-dasharray="1,5" d="M259.58,-118.53C255.95,-138.01 251.36,-162.69 247.34,-184.28"/>
<polygon fill="black" stroke="black" points="245.48,-194.27 242.89,-183.62 246.4,-189.36 247.31,-184.44 247.31,-184.44 247.31,-184.44 246.4,-189.36 251.74,-185.26 245.48,-194.27 245.48,-194.27"/>
<text text-anchor="middle" x="277" y="-147.8" font-family="Verdana" font-size="9.00">consumes</text>
</g>
<!-- ParallaxLayer&#45;&gt;EnvironmentalReaction -->
<g id="edge5" class="edge">
<title>ParallaxLayer&#45;&gt;EnvironmentalReaction</title>
<path fill="none" stroke="black" stroke-dasharray="1,5" d="M288.27,-118.5C293.58,-127.07 299.12,-136.29 304,-145 332.73,-196.31 328.54,-220.29 313,-277 309.45,-289.94 303.25,-302.91 296.45,-314.56"/>
<polygon fill="black" stroke="black" points="291.17,-323.19 292.55,-312.31 293.78,-318.92 296.39,-314.66 296.39,-314.66 296.39,-314.66 293.78,-318.92 300.23,-317 291.17,-323.19 291.17,-323.19"/>
<text text-anchor="middle" x="341" y="-233.3" font-family="Verdana" font-size="9.00">applies</text>
</g>
</g>
</svg>
