<?xml version="1.0" encoding="UTF-8" standalone="no"?>
<!DOCTYPE svg PUBLIC "-//W3C//DTD SVG 1.1//EN"
 "http://www.w3.org/Graphics/SVG/1.1/DTD/svg11.dtd">
<!-- Generated by graphviz version 2.43.0 (0)
 -->
<!-- Title: DataFlow Pages: 1 -->
<svg width="769pt" height="205pt"
 viewBox="0.00 0.00 769.00 205.00" xmlns="http://www.w3.org/2000/svg" xmlns:xlink="http://www.w3.org/1999/xlink">
<g id="graph0" class="graph" transform="scale(1 1) rotate(0) translate(4 201)">
<title>DataFlow</title>
<polygon fill="white" stroke="transparent" points="-4,4 -4,-201 765,-201 765,4 -4,4"/>
<!-- Dev -->
<g id="node1" class="node">
<title>Dev</title>
<polygon fill="lightyellow" stroke="black" points="87,-36 0,-36 0,0 87,0 87,-36"/>
<text text-anchor="middle" x="43.5" y="-14.3" font-family="Verdana" font-size="14.00">Developer</text>
</g>
<!-- SC -->
<g id="node2" class="node">
<title>SC</title>
<polygon fill="lightblue" stroke="black" points="316,-111 196,-111 196,-75 316,-75 316,-111"/>
<text text-anchor="middle" x="256" y="-89.3" font-family="Verdana" font-size="14.00">SpriteCompiler</text>
</g>
<!-- Dev&#45;&gt;SC -->
<g id="edge1" class="edge">
<title>Dev&#45;&gt;SC</title>
<path fill="none" stroke="black" d="M87.1,-33.18C118.06,-44.21 160.41,-59.3 194.82,-71.56"/>
<polygon fill="black" stroke="black" points="193.71,-74.88 204.3,-74.94 196.06,-68.28 193.71,-74.88"/>
<text text-anchor="middle" x="141.5" y="-78" font-family="Verdana" font-size="10.00">1. Provide PNG</text>
<text text-anchor="middle" x="141.5" y="-67" font-family="Verdana" font-size="10.00"> &#160;+ Description</text>
</g>
<!-- TR -->
<g id="node5" class="node">
<title>TR</title>
<polygon fill="lightgreen" stroke="black" points="761,-36 630,-36 630,0 761,0 761,-36"/>
<text text-anchor="middle" x="695.5" y="-14.3" font-family="Verdana" font-size="14.00">Theatre Runtime</text>
</g>
<!-- Dev&#45;&gt;TR -->
<g id="edge8" class="edge">
<title>Dev&#45;&gt;TR</title>
<path fill="none" stroke="black" d="M87.15,-18C195.47,-18 482.28,-18 619.41,-18"/>
<polygon fill="black" stroke="black" points="619.82,-21.5 629.82,-18 619.82,-14.5 619.82,-21.5"/>
<text text-anchor="middle" x="373.5" y="-21" font-family="Verdana" font-size="10.00">8. Launch Scene</text>
</g>
<!-- SC&#45;&gt;SC -->
<g id="edge4" class="edge">
<title>SC&#45;&gt;SC</title>
<path fill="none" stroke="black" d="M235.38,-111.15C232.2,-120.54 239.08,-129 256,-129 266.31,-129 272.89,-125.86 275.74,-121.28"/>
<polygon fill="black" stroke="black" points="279.24,-121.42 276.62,-111.15 272.27,-120.81 279.24,-121.42"/>
<text text-anchor="middle" x="256" y="-143" font-family="Verdana" font-size="10.00">4. Validate</text>
<text text-anchor="middle" x="256" y="-132" font-family="Verdana" font-size="10.00"> &#160;(Pydantic)</text>
</g>
<!-- AI -->
<g id="node3" class="node">
<title>AI</title>
<polygon fill="lightpink" stroke="black" points="523,-145 431,-145 431,-109 523,-109 523,-145"/>
<text text-anchor="middle" x="477" y="-123.3" font-family="Verdana" font-size="14.00">Gemini API</text>
</g>
<!-- SC&#45;&gt;AI -->
<g id="edge2" class="edge">
<title>SC&#45;&gt;AI</title>
<path fill="none" stroke="black" d="M269.25,-111.07C282.7,-129.13 306.14,-155.78 334,-167 366.57,-180.11 379.28,-176.8 413,-167 424.55,-163.64 436,-157.46 445.91,-150.95"/>
<polygon fill="black" stroke="black" points="447.97,-153.78 454.19,-145.2 443.98,-148.03 447.97,-153.78"/>
<text text-anchor="middle" x="373.5" y="-189" font-family="Verdana" font-size="10.00">2. Request</text>
<text text-anchor="middle" x="373.5" y="-178" font-family="Verdana" font-size="10.00"> &#160;Metadata</text>
</g>
<!-- SC&#45;&gt;AI -->
<g id="edge5" class="edge">
<title>SC&#45;&gt;AI</title>
<path fill="none" stroke="black" stroke-dasharray="5,2" d="M297.43,-111.04C309.02,-115.43 321.81,-119.56 334,-122 362.19,-127.65 394.13,-129.19 420.58,-129.19"/>
<polygon fill="black" stroke="black" points="420.83,-132.69 430.8,-129.12 420.77,-125.69 420.83,-132.69"/>
<text text-anchor="middle" x="373.5" y="-143" font-family="Verdana" font-size="10.00">5. (If Fail)</text>
<text text-anchor="middle" x="373.5" y="-132" font-family="Verdana" font-size="10.00"> &#160;Fixup Request</text>
</g>
<!-- FS -->
<g id="node4" class="node">
<title>FS</title>
<polygon fill="lightblue" stroke="black" points="522.5,-66 519.5,-70 498.5,-70 495.5,-66 431.5,-66 431.5,-30 522.5,-30 522.5,-66"/>
<text text-anchor="middle" x="477" y="-44.3" font-family="Verdana" font-size="14.00">FileSystem</text>
</g>
<!-- SC&#45;&gt;FS -->
<g id="edge7" class="edge">
<title>SC&#45;&gt;FS</title>
<path fill="none" stroke="black" d="M295.86,-74.86C307.85,-69.94 321.26,-65.12 334,-62 362.25,-55.07 394.46,-51.55 421.05,-49.78"/>
<polygon fill="black" stroke="black" points="421.55,-53.25 431.32,-49.15 421.13,-46.26 421.55,-53.25"/>
<text text-anchor="middle" x="373.5" y="-65" font-family="Verdana" font-size="10.00">7. Save JSON</text>
</g>
<!-- AI&#45;&gt;SC -->
<g id="edge3" class="edge">
<title>AI&#45;&gt;SC</title>
<path fill="none" stroke="black" d="M430.74,-114.73C424.8,-113.35 418.77,-112.06 413,-111 384.83,-105.82 353.5,-101.86 326.35,-98.99"/>
<polygon fill="black" stroke="black" points="326.47,-95.49 316.17,-97.95 325.76,-102.45 326.47,-95.49"/>
<text text-anchor="middle" x="373.5" y="-114" font-family="Verdana" font-size="10.00">3. Return JSON</text>
</g>
<!-- AI&#45;&gt;SC -->
<g id="edge6" class="edge">
<title>AI&#45;&gt;SC</title>
<path fill="none" stroke="black" stroke-dasharray="5,2" d="M455.47,-108.78C443.87,-99.73 428.6,-89.72 413,-85 385.38,-76.64 353.76,-76.61 326.24,-79.43"/>
<polygon fill="black" stroke="black" points="325.83,-75.96 316.3,-80.59 326.64,-82.91 325.83,-75.96"/>
<text text-anchor="middle" x="373.5" y="-88" font-family="Verdana" font-size="10.00">6. Fixed JSON</text>
</g>
<!-- FS&#45;&gt;TR -->
<g id="edge9" class="edge">
<title>FS&#45;&gt;TR</title>
<path fill="none" stroke="black" d="M522.6,-41.82C550.52,-37.95 587.21,-32.87 619.52,-28.39"/>
<polygon fill="black" stroke="black" points="620.41,-31.8 629.84,-26.96 619.45,-24.87 620.41,-31.8"/>
<text text-anchor="middle" x="576.5" y="-42" font-family="Verdana" font-size="10.00">9. Load Assets</text>
</g>
<!-- TR&#45;&gt;TR -->
<g id="edge10" class="edge">
<title>TR&#45;&gt;TR</title>
<path fill="none" stroke="black" d="M674.15,-36.15C670.87,-45.54 677.98,-54 695.5,-54 706.17,-54 712.99,-50.86 715.94,-46.28"/>
<polygon fill="black" stroke="black" points="719.44,-46.43 716.85,-36.15 712.46,-45.8 719.44,-46.43"/>
<text text-anchor="middle" x="695.5" y="-57" font-family="Verdana" font-size="10.00">10. Physics Loop</text>
</g>
</g>
</svg>
