<?xml version="1.0" encoding="UTF-8" standalone="no"?>
<!DOCTYPE svg PUBLIC "-//W3C//DTD SVG 1.1//EN"
 "http://www.w3.org/Graphics/SVG/1.1/DTD/svg11.dtd">
<!-- Generated by graphviz version 2.43.0 (0)
 -->
<!-- Title: Deployment Pages: 1 -->
<svg width="1141pt" height="200pt"
 viewBox="0.00 0.00 1141.00 200.00" xmlns="http://www.w3.org/2000/svg" xmlns:xlink="http://www.w3.org/1999/xlink">
<g id="graph0" class="graph" transform="scale(1 1) rotate(0) translate(4 196)">
<title>Deployment</title>
<polygon fill="white" stroke="transparent" points="-4,4 -4,-196 1137,-196 1137,4 -4,4"/>
<g id="clust1" class="cluster">
<title>cluster_client</title>
<polygon fill="white" stroke="black" stroke-dasharray="5,2" points="8,-100 8,-175 101,-175 101,-100 8,-100"/>
<text text-anchor="middle" x="54.5" y="-159.8" font-family="Times,serif" font-size="14.00">Client</text>
</g>
<g id="clust2" class="cluster">
<title>cluster_pythonanywhere</title>
<polygon fill="#f5f5f5" stroke="black" points="217,-8 217,-184 1125,-184 1125,-8 217,-8"/>
<text text-anchor="middle" x="671" y="-168.8" font-family="Times,serif" font-size="14.00">PythonAnywhere</text>
</g>
<g id="clust3" class="cluster">
<title>cluster_worker</title>
<polygon fill="#ffffff" stroke="black" points="475,-78 475,-153 1107.5,-153 1107.5,-78 475,-78"/>
<text text-anchor="middle" x="791.25" y="-137.8" font-family="Times,serif" font-size="14.00">Worker</text>
</g>
<!-- Browser -->
<g id="node1" class="node">
<title>Browser</title>
<polygon fill="#e3f2fd" stroke="black" points="93,-144 16,-144 16,-108 93,-108 93,-144"/>
<text text-anchor="middle" x="54.5" y="-122.3" font-family="Times,serif" font-size="14.00">Browser</text>
</g>
<!-- Nginx -->
<g id="node2" class="node">
<title>Nginx</title>
<polygon fill="white" stroke="black" points="344,-145 225,-145 225,-141 221,-141 221,-137 225,-137 225,-115 221,-115 221,-111 225,-111 225,-107 344,-107 344,-145"/>
<polyline fill="none" stroke="black" points="225,-141 229,-141 229,-137 225,-137 "/>
<polyline fill="none" stroke="black" points="225,-115 229,-115 229,-111 225,-111 "/>
<text text-anchor="middle" x="284.5" y="-129.8" font-family="Times,serif" font-size="14.00">Load Balancer</text>
<text text-anchor="middle" x="284.5" y="-114.8" font-family="Times,serif" font-size="14.00">(Nginx)</text>
</g>
<!-- Browser&#45;&gt;Nginx -->
<g id="edge1" class="edge">
<title>Browser&#45;&gt;Nginx</title>
<path fill="none" stroke="black" d="M93.15,-126C126.08,-126 174.73,-126 214.61,-126"/>
<polygon fill="black" stroke="black" points="214.81,-129.5 224.81,-126 214.81,-122.5 214.81,-129.5"/>
<text text-anchor="middle" x="159" y="-129.8" font-family="Times,serif" font-size="14.00">HTTP/HTTPS</text>
</g>
<!-- WSGI -->
<g id="node3" class="node">
<title>WSGI</title>
<polygon fill="white" stroke="black" points="602,-122 483,-122 483,-118 479,-118 479,-114 483,-114 483,-94 479,-94 479,-90 483,-90 483,-86 602,-86 602,-122"/>
<polyline fill="none" stroke="black" points="483,-118 487,-118 487,-114 483,-114 "/>
<polyline fill="none" stroke="black" points="483,-94 487,-94 487,-90 483,-90 "/>
<text text-anchor="middle" x="542.5" y="-100.3" font-family="Times,serif" font-size="14.00">WSGI Adapter</text>
</g>
<!-- Nginx&#45;&gt;WSGI -->
<g id="edge3" class="edge">
<title>Nginx&#45;&gt;WSGI</title>
<path fill="none" stroke="black" d="M344.23,-120.95C382.47,-117.67 432.51,-113.37 472.63,-109.92"/>
<polygon fill="black" stroke="black" points="472.94,-113.41 482.6,-109.06 472.34,-106.43 472.94,-113.41"/>
<text text-anchor="middle" x="413.5" y="-121.8" font-family="Times,serif" font-size="14.00">/api (Backend)</text>
</g>
<!-- StaticFiles -->
<g id="node5" class="node">
<title>StaticFiles</title>
<polygon fill="white" stroke="black" points="1099.5,-122 1001.5,-122 1001.5,-118 997.5,-118 997.5,-114 1001.5,-114 1001.5,-94 997.5,-94 997.5,-90 1001.5,-90 1001.5,-86 1099.5,-86 1099.5,-122"/>
<polyline fill="none" stroke="black" points="1001.5,-118 1005.5,-118 1005.5,-114 1001.5,-114 "/>
<polyline fill="none" stroke="black" points="1001.5,-94 1005.5,-94 1005.5,-90 1001.5,-90 "/>
<text text-anchor="middle" x="1050.5" y="-100.3" font-family="Times,serif" font-size="14.00">Static Files</text>
</g>
<!-- Nginx&#45;&gt;StaticFiles -->
<g id="edge2" class="edge">
<title>Nginx&#45;&gt;StaticFiles</title>
<path fill="none" stroke="black" d="M344.31,-134.47C350.28,-135.1 356.25,-135.63 362,-136 407.68,-138.97 419.22,-136.32 465,-136 687.81,-134.47 745.07,-146.89 966,-118 974.28,-116.92 982.99,-115.63 991.54,-114.27"/>
<polygon fill="black" stroke="black" points="992.15,-117.72 1001.46,-112.66 991.03,-110.81 992.15,-117.72"/>
<text text-anchor="middle" x="663" y="-140.8" font-family="Times,serif" font-size="14.00">/ (Frontend)</text>
</g>
<!-- FastAPI -->
<g id="node4" class="node">
<title>FastAPI</title>
<polygon fill="#c8e6c9" stroke="black" points="828,-122 724,-122 724,-118 720,-118 720,-114 724,-114 724,-94 720,-94 720,-90 724,-90 724,-86 828,-86 828,-122"/>
<polyline fill="none" stroke="black" points="724,-118 728,-118 728,-114 724,-114 "/>
<polyline fill="none" stroke="black" points="724,-94 728,-94 728,-90 724,-90 "/>
<text text-anchor="middle" x="776" y="-100.3" font-family="Times,serif" font-size="14.00">FastAPI App</text>
</g>
<!-- WSGI&#45;&gt;FastAPI -->
<g id="edge4" class="edge">
<title>WSGI&#45;&gt;FastAPI</title>
<path fill="none" stroke="black" d="M602.22,-104C636.21,-104 678.95,-104 713.41,-104"/>
<polygon fill="black" stroke="black" points="713.82,-107.5 723.82,-104 713.82,-100.5 713.82,-107.5"/>
</g>
<!-- FastAPI&#45;&gt;StaticFiles -->
<g id="edge5" class="edge">
<title>FastAPI&#45;&gt;StaticFiles</title>
<path fill="none" stroke="black" d="M828.22,-99.87C834.21,-99.51 840.24,-99.21 846,-99 899.3,-97.07 912.69,-97.41 966,-99 974.15,-99.24 982.75,-99.62 991.2,-100.06"/>
<polygon fill="black" stroke="black" points="991.22,-103.57 1001.39,-100.63 991.6,-96.58 991.22,-103.57"/>
<text text-anchor="middle" x="906" y="-102.8" font-family="Times,serif" font-size="14.00">Serves (fallback)</text>
</g>
<!-- Database -->
<g id="node6" class="node">
<title>Database</title>
<path fill="#fff9c4" stroke="black" d="M1117,-63.48C1117,-66.11 1087.19,-68.25 1050.5,-68.25 1013.81,-68.25 984,-66.11 984,-63.48 984,-63.48 984,-20.52 984,-20.52 984,-17.89 1013.81,-15.75 1050.5,-15.75 1087.19,-15.75 1117,-17.89 1117,-20.52 1117,-20.52 1117,-63.48 1117,-63.48"/>
<path fill="none" stroke="black" d="M1117,-63.48C1117,-60.84 1087.19,-58.7 1050.5,-58.7 1013.81,-58.7 984,-60.84 984,-63.48"/>
<text text-anchor="middle" x="1050.5" y="-45.8" font-family="Times,serif" font-size="14.00">Storage</text>
<text text-anchor="middle" x="1050.5" y="-30.8" font-family="Times,serif" font-size="14.00">(SQLite/MySQL)</text>
</g>
<!-- FastAPI&#45;&gt;Database -->
<g id="edge6" class="edge">
<title>FastAPI&#45;&gt;Database</title>
<path fill="none" stroke="black" d="M821.14,-85.99C829.32,-83.05 837.85,-80.24 846,-78 887.61,-66.59 935.03,-57.95 973.62,-52"/>
<polygon fill="black" stroke="black" points="974.38,-55.43 983.75,-50.47 973.34,-48.51 974.38,-55.43"/>
<text text-anchor="middle" x="906" y="-81.8" font-family="Times,serif" font-size="14.00">Reads/Writes</text>
</g>
</g>
</svg>
