<?xml version="1.0" encoding="UTF-8" standalone="no"?>
<!DOCTYPE svg PUBLIC "-//W3C//DTD SVG 1.1//EN"
 "http://www.w3.org/Graphics/SVG/1.1/DTD/svg11.dtd">
<!-- Generated by graphviz version 2.43.0 (0)
 -->
<!-- Title: DevelopmentWorkflow Pages: 1 -->
<svg width="835pt" height="297pt"
 viewBox="0.00 0.00 835.00 296.56" xmlns="http://www.w3.org/2000/svg" xmlns:xlink="http://www.w3.org/1999/xlink">
<g id="graph0" class="graph" transform="scale(1 1) rotate(0) translate(4 292.56)">
<title>DevelopmentWorkflow</title>
<polygon fill="white" stroke="transparent" points="-4,4 -4,-292.56 831,-292.56 831,4 -4,4"/>
<g id="clust1" class="cluster">
<title>cluster_Assets</title>
<polygon fill="lightgrey" stroke="lightgrey" points="517.5,-205.56 517.5,-280.56 819,-280.56 819,-205.56 517.5,-205.56"/>
<text text-anchor="middle" x="668.25" y="-265.36" font-family="Times,serif" font-size="14.00">1. Assets 🎨</text>
</g>
<g id="clust2" class="cluster">
<title>cluster_Engine</title>
<polygon fill="lightgrey" stroke="lightgrey" points="8,-205.56 8,-280.56 349,-280.56 349,-205.56 8,-205.56"/>
<text text-anchor="middle" x="178.5" y="-265.36" font-family="Times,serif" font-size="14.00">2. Engine ⚙️</text>
</g>
<g id="clust3" class="cluster">
<title>cluster_Verification</title>
<polygon fill="lightgrey" stroke="lightgrey" points="179,-68.56 179,-197.56 638,-197.56 638,-68.56 179,-68.56"/>
<text text-anchor="middle" x="408.5" y="-182.36" font-family="Times,serif" font-size="14.00">3. Verification ✅</text>
</g>
<!-- Art -->
<g id="node1" class="node">
<title>Art</title>
<polygon fill="white" stroke="black" points="615.5,-249.56 525.5,-249.56 525.5,-213.56 615.5,-213.56 615.5,-249.56"/>
<text text-anchor="middle" x="570.5" y="-229.06" font-family="Verdana" font-size="10.00">Create PNG Art</text>
</g>
<!-- Prompt -->
<g id="node2" class="node">
<title>Prompt</title>
<polygon fill="white" stroke="black" points="811,-249.56 707,-249.56 707,-213.56 811,-213.56 811,-249.56"/>
<text text-anchor="middle" x="759" y="-229.06" font-family="Verdana" font-size="10.00">Write .prompt File</text>
</g>
<!-- Art&#45;&gt;Prompt -->
<g id="edge1" class="edge">
<title>Art&#45;&gt;Prompt</title>
<path fill="none" stroke="black" d="M615.7,-231.56C639.85,-231.56 670.14,-231.56 696.56,-231.56"/>
<polygon fill="black" stroke="black" points="696.86,-235.06 706.86,-231.56 696.86,-228.06 696.86,-235.06"/>
</g>
<!-- Compile -->
<g id="node3" class="node">
<title>Compile</title>
<polygon fill="lightcyan" stroke="black" points="150,-249.56 16,-249.56 16,-213.56 150,-213.56 150,-249.56"/>
<text text-anchor="middle" x="83" y="-234.56" font-family="Verdana" font-size="10.00">Run Compiler</text>
<text text-anchor="middle" x="83" y="-223.56" font-family="Verdana" font-size="10.00">(uv run python main.py)</text>
</g>
<!-- Prompt&#45;&gt;Compile -->
<g id="edge2" class="edge">
<title>Prompt&#45;&gt;Compile</title>
<path fill="none" stroke="black" d="M748.37,-213.37C730.33,-179.38 692.92,-109.19 689,-104.56 670.4,-82.56 665.23,-73.96 638,-64.56 445.18,2.04 355.34,38 179,-64.56 127.25,-94.66 101.37,-164.63 90.52,-203.77"/>
<polygon fill="black" stroke="black" points="87.13,-202.92 87.96,-213.48 93.9,-204.7 87.13,-202.92"/>
</g>
<!-- Review -->
<g id="node4" class="node">
<title>Review</title>
<polygon fill="white" stroke="black" points="341,-249.56 239,-249.56 239,-213.56 341,-213.56 341,-249.56"/>
<text text-anchor="middle" x="290" y="-234.56" font-family="Verdana" font-size="10.00">Review Metadata</text>
<text text-anchor="middle" x="290" y="-223.56" font-family="Verdana" font-size="10.00">(.prompt.json)</text>
</g>
<!-- Compile&#45;&gt;Review -->
<g id="edge3" class="edge">
<title>Compile&#45;&gt;Review</title>
<path fill="none" stroke="black" d="M150.27,-231.56C175.45,-231.56 203.98,-231.56 228.59,-231.56"/>
<polygon fill="black" stroke="black" points="228.88,-235.06 238.88,-231.56 228.88,-228.06 228.88,-235.06"/>
</g>
<!-- Review&#45;&gt;Art -->
<g id="edge4" class="edge">
<title>Review&#45;&gt;Art</title>
<path fill="none" stroke="black" stroke-dasharray="5,2" d="M341.11,-231.56C390.19,-231.56 464.76,-231.56 515.23,-231.56"/>
<polygon fill="black" stroke="black" points="515.3,-235.06 525.3,-231.56 515.3,-228.06 515.3,-235.06"/>
<text text-anchor="middle" x="452" y="-234.36" font-family="Verdana" font-size="9.00">Refine Prompt</text>
</g>
<!-- Theatre -->
<g id="node5" class="node">
<title>Theatre</title>
<polygon fill="lightyellow" stroke="black" points="393,-166.56 187,-166.56 187,-130.56 393,-130.56 393,-166.56"/>
<text text-anchor="middle" x="290" y="-151.56" font-family="Verdana" font-size="10.00">Run Theatre</text>
<text text-anchor="middle" x="290" y="-140.56" font-family="Verdana" font-size="10.00">(uv run python src/renderer/theatre.py)</text>
</g>
<!-- Review&#45;&gt;Theatre -->
<g id="edge5" class="edge">
<title>Review&#45;&gt;Theatre</title>
<path fill="none" stroke="black" d="M290,-213.32C290,-201.18 290,-189.05 290,-176.91"/>
<polygon fill="black" stroke="black" points="293.5,-176.72 290,-166.72 286.5,-176.72 293.5,-176.72"/>
</g>
<!-- Dashboard -->
<g id="node6" class="node">
<title>Dashboard</title>
<polygon fill="lightyellow" stroke="black" points="336.5,-112.56 243.5,-112.56 243.5,-76.56 336.5,-76.56 336.5,-112.56"/>
<text text-anchor="middle" x="290" y="-97.56" font-family="Verdana" font-size="10.00">Web Dashboard</text>
<text text-anchor="middle" x="290" y="-86.56" font-family="Verdana" font-size="10.00">(npm run dev)</text>
</g>
<!-- Review&#45;&gt;Dashboard -->
<g id="edge6" class="edge">
<title>Review&#45;&gt;Dashboard</title>
<path fill="none" stroke="black" d="M238.87,-231.32C210.81,-228.06 178.86,-218.38 164.5,-192.56 151.1,-168.48 151.1,-154.64 164.5,-130.56 177.84,-106.58 206.62,-97.23 233.26,-94.04"/>
<polygon fill="black" stroke="black" points="233.69,-97.51 243.32,-93.09 233.04,-90.54 233.69,-97.51"/>
</g>
<!-- Theatre&#45;&gt;Art -->
<g id="edge7" class="edge">
<title>Theatre&#45;&gt;Art</title>
<path fill="none" stroke="black" stroke-dasharray="5,2" d="M393.14,-148.69C434.47,-150.56 476.35,-155.35 493,-166.56 507.51,-176.33 498.62,-189.2 511,-201.56 513.12,-203.68 515.42,-205.68 517.84,-207.56"/>
<polygon fill="black" stroke="black" points="516.24,-210.7 526.45,-213.51 520.22,-204.94 516.24,-210.7"/>
<text text-anchor="middle" x="452" y="-169.36" font-family="Verdana" font-size="9.00">Visual Adjustment</text>
</g>
<!-- Test -->
<g id="node7" class="node">
<title>Test</title>
<polygon fill="lightgreen" stroke="black" points="630,-126.56 511,-126.56 511,-90.56 630,-90.56 630,-126.56"/>
<text text-anchor="middle" x="570.5" y="-111.56" font-family="Verdana" font-size="10.00">Validation</text>
<text text-anchor="middle" x="570.5" y="-100.56" font-family="Verdana" font-size="10.00">(./scripts/validate.sh)</text>
</g>
<!-- Theatre&#45;&gt;Test -->
<g id="edge9" class="edge">
<title>Theatre&#45;&gt;Test</title>
<path fill="none" stroke="black" d="M364.69,-130.55C374.29,-127.77 383.93,-124.75 393,-121.56 401.26,-118.65 402.47,-115.51 411,-113.56 439.92,-106.94 472.58,-105.01 500.71,-104.99"/>
<polygon fill="black" stroke="black" points="500.82,-108.49 510.85,-105.07 500.87,-101.49 500.82,-108.49"/>
</g>
<!-- Dashboard&#45;&gt;Art -->
<g id="edge8" class="edge">
<title>Dashboard&#45;&gt;Art</title>
<path fill="none" stroke="black" stroke-dasharray="5,2" d="M336.56,-98.29C389,-103.51 470.79,-114.77 493,-135.56 515.2,-156.34 491.84,-177.95 511,-201.56 512.85,-203.84 514.93,-205.97 517.16,-207.95"/>
<polygon fill="black" stroke="black" points="515.18,-210.85 525.26,-214.13 519.43,-205.29 515.18,-210.85"/>
<text text-anchor="middle" x="452" y="-138.36" font-family="Verdana" font-size="9.00">Visual Adjustment</text>
</g>
<!-- Dashboard&#45;&gt;Test -->
<g id="edge10" class="edge">
<title>Dashboard&#45;&gt;Test</title>
<path fill="none" stroke="black" d="M336.74,-96.33C377.69,-97.97 439.37,-100.61 493,-103.56 495.5,-103.7 498.05,-103.84 500.62,-103.99"/>
<polygon fill="black" stroke="black" points="500.43,-107.48 510.62,-104.59 500.84,-100.5 500.43,-107.48"/>
</g>
<!-- Test&#45;&gt;Review -->
<g id="edge11" class="edge">
<title>Test&#45;&gt;Review</title>
<path fill="none" stroke="red" d="M553.64,-126.74C539.27,-142.14 516.75,-163.7 493,-176.56 448.56,-200.62 392.81,-214.77 351.14,-222.67"/>
<polygon fill="red" stroke="red" points="350.34,-219.26 341.13,-224.51 351.6,-226.15 350.34,-219.26"/>
<text text-anchor="middle" x="452" y="-210.36" font-family="Verdana" font-size="9.00">Fix Failures</text>
</g>
<!-- Commit -->
<g id="node8" class="node">
<title>Commit</title>
<polygon fill="green" stroke="black" points="762.96,-90.61 765.58,-90.71 768.17,-90.85 770.72,-91.05 773.23,-91.29 775.68,-91.59 778.06,-91.92 780.36,-92.31 782.58,-92.74 784.71,-93.21 786.73,-93.72 788.64,-94.27 790.44,-94.87 792.12,-95.5 793.67,-96.16 795.09,-96.87 796.38,-97.6 797.54,-98.36 798.55,-99.15 799.42,-99.97 800.16,-100.81 800.75,-101.67 801.21,-102.55 801.53,-103.45 801.71,-104.36 801.76,-105.28 801.68,-106.21 801.47,-107.15 801.14,-108.09 800.69,-109.03 800.14,-109.97 799.47,-110.91 798.7,-111.84 797.84,-112.76 796.88,-113.67 795.85,-114.57 794.73,-115.45 793.54,-116.31 792.28,-117.15 790.96,-117.97 789.58,-118.76 788.15,-119.52 786.68,-120.25 785.16,-120.95 783.61,-121.62 782.02,-122.25 780.41,-122.84 778.77,-123.4 777.11,-123.91 775.43,-124.38 773.74,-124.81 772.03,-125.19 770.32,-125.53 768.59,-125.82 766.85,-126.07 765.11,-126.26 763.37,-126.41 761.62,-126.51 759.87,-126.56 758.13,-126.56 756.38,-126.51 754.63,-126.41 752.89,-126.26 751.15,-126.07 749.41,-125.82 747.68,-125.53 745.97,-125.19 744.26,-124.81 742.57,-124.38 740.89,-123.91 739.23,-123.4 737.59,-122.84 735.98,-122.25 734.39,-121.62 732.84,-120.95 731.32,-120.25 729.85,-119.52 728.42,-118.76 727.04,-117.97 725.72,-117.15 724.46,-116.31 723.27,-115.45 722.15,-114.57 721.12,-113.67 720.16,-112.76 719.3,-111.84 718.53,-110.91 717.86,-109.97 717.31,-109.03 716.86,-108.09 716.53,-107.15 716.32,-106.21 716.24,-105.28 716.29,-104.36 716.47,-103.45 716.79,-102.55 717.25,-101.67 717.84,-100.81 718.58,-99.97 719.45,-99.15 720.46,-98.36 721.62,-97.6 722.91,-96.87 724.33,-96.16 725.88,-95.5 727.56,-94.87 729.36,-94.27 731.27,-93.72 733.29,-93.21 735.42,-92.74 737.64,-92.31 739.94,-91.92 742.32,-91.59 744.77,-91.29 747.28,-91.05 749.83,-90.85 752.42,-90.71 755.04,-90.61 757.68,-90.56 760.32,-90.56 762.96,-90.61"/>
<text text-anchor="middle" x="759" y="-106.06" font-family="Verdana" font-size="10.00">Publish/PR</text>
</g>
<!-- Test&#45;&gt;Commit -->
<g id="edge12" class="edge">
<title>Test&#45;&gt;Commit</title>
<path fill="none" stroke="forestgreen" stroke-width="2" d="M630.25,-108.56C654.81,-108.56 683.08,-108.56 706.77,-108.56"/>
<polygon fill="forestgreen" stroke="forestgreen" stroke-width="2" points="706.96,-112.06 716.96,-108.56 706.96,-105.06 706.96,-112.06"/>
<text text-anchor="middle" x="668.5" y="-111.36" font-family="Verdana" font-size="9.00" fill="forestgreen">Success!</text>
</g>
</g>
</svg>
