<?xml version="1.0" encoding="UTF-8" standalone="no"?>
<!DOCTYPE svg PUBLIC "-//W3C//DTD SVG 1.1//EN"
 "http://www.w3.org/Graphics/SVG/1.1/DTD/svg11.dtd">
<!-- Generated by graphviz version 2.43.0 (0)
 -->
<!-- Title: CommunicationFlow Pages: 1 -->
<svg width="1199pt" height="112pt"
 viewBox="0.00 0.00 1199.29 112.19" xmlns="http://www.w3.org/2000/svg" xmlns:xlink="http://www.w3.org/1999/xlink">
<g id="graph0" class="graph" transform="scale(1 1) rotate(0) translate(4 108.19)">
<title>CommunicationFlow</title>
<polygon fill="white" stroke="transparent" points="-4,4 -4,-108.19 1195.29,-108.19 1195.29,4 -4,4"/>
<!-- User -->
<g id="node1" class="node">
<title>User</title>
<ellipse fill="lightblue" stroke="black" cx="33.15" cy="-50.19" rx="33.29" ry="18"/>
<text text-anchor="middle" x="33.15" y="-46.49" font-family="Times,serif" font-size="14.00">User</text>
</g>
<!-- EditorUI -->
<g id="node2" class="node">
<title>EditorUI</title>
<polygon fill="white" stroke="black" points="351.29,-69.19 268.29,-69.19 268.29,-31.19 351.29,-31.19 351.29,-69.19"/>
<text text-anchor="middle" x="309.79" y="-53.99" font-family="Times,serif" font-size="14.00">Editor UI</text>
<text text-anchor="middle" x="309.79" y="-38.99" font-family="Times,serif" font-size="14.00">(React)</text>
</g>
<!-- User&#45;&gt;EditorUI -->
<g id="edge1" class="edge">
<title>User&#45;&gt;EditorUI</title>
<path fill="none" stroke="black" d="M66.46,-50.19C113.72,-50.19 202.12,-50.19 258.09,-50.19"/>
<polygon fill="black" stroke="black" points="258.15,-53.69 268.15,-50.19 258.15,-46.69 258.15,-53.69"/>
<text text-anchor="middle" x="167.29" y="-53.99" font-family="Times,serif" font-size="14.00">Uploads &#39;lantern.png&#39;</text>
</g>
<!-- User&#45;&gt;EditorUI -->
<g id="edge6" class="edge">
<title>User&#45;&gt;EditorUI</title>
<path fill="none" stroke="black" d="M58.89,-38.79C66.83,-35.68 75.78,-32.75 84.29,-31.19 156.87,-17.9 177.42,-19.65 250.29,-31.19 252.97,-31.61 255.69,-32.14 258.42,-32.74"/>
<polygon fill="black" stroke="black" points="257.73,-36.18 268.28,-35.23 259.44,-29.39 257.73,-36.18"/>
<text text-anchor="middle" x="167.29" y="-34.99" font-family="Times,serif" font-size="14.00">Adds &#39;lantern&#39; to Scene</text>
</g>
<!-- BackendAPI -->
<g id="node3" class="node">
<title>BackendAPI</title>
<polygon fill="white" stroke="black" points="645.29,-69.19 538.29,-69.19 538.29,-31.19 645.29,-31.19 645.29,-69.19"/>
<text text-anchor="middle" x="591.79" y="-53.99" font-family="Times,serif" font-size="14.00">Backend API</text>
<text text-anchor="middle" x="591.79" y="-38.99" font-family="Times,serif" font-size="14.00">(FastAPI)</text>
</g>
<!-- EditorUI&#45;&gt;BackendAPI -->
<g id="edge2" class="edge">
<title>EditorUI&#45;&gt;BackendAPI</title>
<path fill="none" stroke="black" d="M351.42,-62.79C357.36,-64.2 363.45,-65.4 369.29,-66.19 435.81,-75.12 453.6,-73.66 520.29,-66.19 522.95,-65.89 525.65,-65.53 528.37,-65.12"/>
<polygon fill="black" stroke="black" points="528.99,-68.57 538.27,-63.46 527.83,-61.67 528.99,-68.57"/>
<text text-anchor="middle" x="444.79" y="-75.99" font-family="Times,serif" font-size="14.00">POST /assets/upload</text>
</g>
<!-- EditorUI&#45;&gt;BackendAPI -->
<g id="edge7" class="edge">
<title>EditorUI&#45;&gt;BackendAPI</title>
<path fill="none" stroke="black" d="M351.38,-47.84C357.38,-47.57 363.5,-47.34 369.29,-47.19 436.38,-45.47 453.2,-45.76 520.29,-47.19 522.81,-47.24 525.38,-47.31 527.98,-47.38"/>
<polygon fill="black" stroke="black" points="527.95,-50.88 538.06,-47.7 528.18,-43.88 527.95,-50.88"/>
<text text-anchor="middle" x="444.79" y="-50.99" font-family="Times,serif" font-size="14.00">POST /scenes/update</text>
</g>
<!-- BackendAPI&#45;&gt;EditorUI -->
<g id="edge5" class="edge">
<title>BackendAPI&#45;&gt;EditorUI</title>
<path fill="none" stroke="black" d="M562.22,-31.17C549.88,-24.04 534.92,-16.79 520.29,-13.19 455.13,2.87 433.75,5.49 369.29,-13.19 360.14,-15.84 351.04,-20.4 342.85,-25.43"/>
<polygon fill="black" stroke="black" points="340.79,-22.6 334.34,-31.01 344.63,-28.45 340.79,-22.6"/>
<text text-anchor="middle" x="444.79" y="-16.99" font-family="Times,serif" font-size="14.00">Returns Asset Path</text>
</g>
<!-- Script -->
<g id="node4" class="node">
<title>Script</title>
<polygon fill="white" stroke="black" points="892.29,-103.19 747.29,-103.19 747.29,-67.19 892.29,-67.19 892.29,-103.19"/>
<text text-anchor="middle" x="819.79" y="-81.49" font-family="Times,serif" font-size="14.00">process_assets.py</text>
</g>
<!-- BackendAPI&#45;&gt;Script -->
<g id="edge3" class="edge">
<title>BackendAPI&#45;&gt;Script</title>
<path fill="none" stroke="black" d="M645.5,-58.35C672.68,-62.56 706.46,-67.79 736.95,-72.51"/>
<polygon fill="black" stroke="black" points="736.73,-76.02 747.15,-74.09 737.8,-69.1 736.73,-76.02"/>
<text text-anchor="middle" x="696.29" y="-73.99" font-family="Times,serif" font-size="14.00">Executes</text>
</g>
<!-- FileSystem -->
<g id="node5" class="node">
<title>FileSystem</title>
<polygon fill="white" stroke="black" points="1191.29,-68.19 1090.29,-68.19 1090.29,-32.19 1191.29,-32.19 1191.29,-68.19"/>
<text text-anchor="middle" x="1140.79" y="-46.49" font-family="Times,serif" font-size="14.00">File System</text>
</g>
<!-- BackendAPI&#45;&gt;FileSystem -->
<g id="edge8" class="edge">
<title>BackendAPI&#45;&gt;FileSystem</title>
<path fill="none" stroke="black" d="M645.33,-47.22C675.21,-45.68 713.34,-43.96 747.29,-43.19 865.08,-40.52 1002.77,-44.65 1079.77,-47.61"/>
<polygon fill="black" stroke="black" points="1080.09,-51.13 1090.22,-48.02 1080.37,-44.13 1080.09,-51.13"/>
<text text-anchor="middle" x="819.79" y="-46.99" font-family="Times,serif" font-size="14.00">Updates scene.json</text>
</g>
<!-- Script&#45;&gt;FileSystem -->
<g id="edge4" class="edge">
<title>Script&#45;&gt;FileSystem</title>
<path fill="none" stroke="black" d="M892.38,-77.33C948.99,-71.12 1027.07,-62.56 1080.28,-56.72"/>
<polygon fill="black" stroke="black" points="1080.69,-60.19 1090.25,-55.63 1079.92,-53.24 1080.69,-60.19"/>
<text text-anchor="middle" x="991.29" y="-92.99" font-family="Times,serif" font-size="14.00">Writes Processed PNG</text>
<text text-anchor="middle" x="991.29" y="-77.99" font-family="Times,serif" font-size="14.00">(assets/sprites/)</text>
</g>
</g>
</svg>
