<?xml version="1.0" encoding="UTF-8" standalone="no"?>
<!DOCTYPE svg PUBLIC "-//W3C//DTD SVG 1.1//EN"
 "http://www.w3.org/Graphics/SVG/1.1/DTD/svg11.dtd">
<!-- Generated by graphviz version 2.43.0 (0)
 -->
<!-- Title: HighLevelArchitecture Pages: 1 -->
<svg width="728pt" height="328pt"
 viewBox="0.00 0.00 727.86 328.00" xmlns="http://www.w3.org/2000/svg" xmlns:xlink="http://www.w3.org/1999/xlink">
<g id="graph0" class="graph" transform="scale(1 1) rotate(0) translate(4 324)">
<title>HighLevelArchitecture</title>
<polygon fill="white" stroke="transparent" points="-4,4 -4,-324 723.86,-324 723.86,4 -4,4"/>
<g id="clust1" class="cluster">
<title>cluster_Frontend</title>
<path fill="#e1f5fe" stroke="#e1f5fe" d="M219.86,-224C219.86,-224 501.86,-224 501.86,-224 507.86,-224 513.86,-230 513.86,-236 513.86,-236 513.86,-300 513.86,-300 513.86,-306 507.86,-312 501.86,-312 501.86,-312 219.86,-312 219.86,-312 213.86,-312 207.86,-306 207.86,-300 207.86,-300 207.86,-236 207.86,-236 207.86,-230 213.86,-224 219.86,-224"/>
<text text-anchor="middle" x="360.86" y="-298.4" font-family="Times,serif" font-size="12.00">Browser / Frontend 🖥️</text>
<text text-anchor="middle" x="360.86" y="-285.4" font-family="Times,serif" font-size="12.00">(Node.js / React)</text>
</g>
<g id="clust2" class="cluster">
<title>cluster_Backend</title>
<path fill="#fff3e0" stroke="#fff3e0" d="M415.36,-8C415.36,-8 699.86,-8 699.86,-8 705.86,-8 711.86,-14 711.86,-20 711.86,-20 711.86,-204 711.86,-204 711.86,-210 705.86,-216 699.86,-216 699.86,-216 415.36,-216 415.36,-216 409.36,-216 403.36,-210 403.36,-204 403.36,-204 403.36,-20 403.36,-20 403.36,-14 409.36,-8 415.36,-8"/>
<text text-anchor="middle" x="557.61" y="-202.4" font-family="Times,serif" font-size="12.00">Server / Backend ⚙️</text>
<text text-anchor="middle" x="557.61" y="-189.4" font-family="Times,serif" font-size="12.00">(Python 3.10+)</text>
</g>
<!-- User -->
<g id="node1" class="node">
<title>User</title>
<ellipse fill="lightblue" stroke="black" cx="63.93" cy="-250" rx="63.86" ry="18"/>
<text text-anchor="middle" x="63.93" y="-247.5" font-family="Verdana" font-size="10.00">End User 👤</text>
</g>
<!-- ReactApp -->
<g id="node2" class="node">
<title>ReactApp</title>
<path fill="white" stroke="black" d="M289.86,-268C289.86,-268 227.86,-268 227.86,-268 221.86,-268 215.86,-262 215.86,-256 215.86,-256 215.86,-244 215.86,-244 215.86,-238 221.86,-232 227.86,-232 227.86,-232 289.86,-232 289.86,-232 295.86,-232 301.86,-238 301.86,-244 301.86,-244 301.86,-256 301.86,-256 301.86,-262 295.86,-268 289.86,-268"/>
<text text-anchor="middle" x="258.86" y="-253" font-family="Verdana" font-size="10.00">React App</text>
<text text-anchor="middle" x="258.86" y="-242" font-family="Verdana" font-size="10.00">(UI &amp; State)</text>
</g>
<!-- User&#45;&gt;ReactApp -->
<g id="edge5" class="edge">
<title>User&#45;&gt;ReactApp</title>
<path fill="none" stroke="black" d="M128.1,-250C153.18,-250 181.69,-250 205.58,-250"/>
<polygon fill="black" stroke="black" points="205.85,-253.5 215.85,-250 205.85,-246.5 205.85,-253.5"/>
<text text-anchor="middle" x="171.86" y="-262.8" font-family="Verdana" font-size="9.00">Interacts</text>
<text text-anchor="middle" x="171.86" y="-252.8" font-family="Verdana" font-size="9.00">(Click/Type)</text>
</g>
<!-- TheatreJS -->
<g id="node3" class="node">
<title>TheatreJS</title>
<path fill="white" stroke="black" d="M493.86,-268C493.86,-268 408.86,-268 408.86,-268 402.86,-268 396.86,-262 396.86,-256 396.86,-256 396.86,-244 396.86,-244 396.86,-238 402.86,-232 408.86,-232 408.86,-232 493.86,-232 493.86,-232 499.86,-232 505.86,-238 505.86,-244 505.86,-244 505.86,-256 505.86,-256 505.86,-262 499.86,-268 493.86,-268"/>
<text text-anchor="middle" x="451.36" y="-253" font-family="Verdana" font-size="10.00">Theatre.js</text>
<text text-anchor="middle" x="451.36" y="-242" font-family="Verdana" font-size="10.00">(Editor Runtime)</text>
</g>
<!-- ReactApp&#45;&gt;TheatreJS -->
<g id="edge1" class="edge">
<title>ReactApp&#45;&gt;TheatreJS</title>
<path fill="none" stroke="black" d="M302.14,-250C326.93,-250 358.75,-250 386.55,-250"/>
<polygon fill="black" stroke="black" points="386.59,-253.5 396.59,-250 386.59,-246.5 386.59,-253.5"/>
<text text-anchor="middle" x="349.36" y="-262.8" font-family="Verdana" font-size="9.00">Syncs State</text>
<text text-anchor="middle" x="349.36" y="-252.8" font-family="Verdana" font-size="9.00">(Hooks)</text>
</g>
<!-- FastAPI -->
<g id="node4" class="node">
<title>FastAPI</title>
<path fill="white" stroke="black" d="M479.36,-167C479.36,-167 423.36,-167 423.36,-167 417.36,-167 411.36,-161 411.36,-155 411.36,-155 411.36,-143 411.36,-143 411.36,-137 417.36,-131 423.36,-131 423.36,-131 479.36,-131 479.36,-131 485.36,-131 491.36,-137 491.36,-143 491.36,-143 491.36,-155 491.36,-155 491.36,-161 485.36,-167 479.36,-167"/>
<text text-anchor="middle" x="451.36" y="-152" font-family="Verdana" font-size="10.00">FastAPI</text>
<text text-anchor="middle" x="451.36" y="-141" font-family="Verdana" font-size="10.00">(REST API)</text>
</g>
<!-- ReactApp&#45;&gt;FastAPI -->
<g id="edge6" class="edge">
<title>ReactApp&#45;&gt;FastAPI</title>
<path fill="none" stroke="black" d="M293.92,-231.94C325.65,-215.12 373.09,-189.96 407.41,-171.77"/>
<polygon fill="black" stroke="black" points="409.08,-174.85 416.28,-167.07 405.8,-168.66 409.08,-174.85"/>
<text text-anchor="middle" x="349.36" y="-229.8" font-family="Verdana" font-size="9.00">API Requests</text>
<text text-anchor="middle" x="349.36" y="-219.8" font-family="Verdana" font-size="9.00">(JSON)</text>
</g>
<!-- FastAPI&#45;&gt;ReactApp -->
<g id="edge7" class="edge">
<title>FastAPI&#45;&gt;ReactApp</title>
<path fill="none" stroke="black" d="M411.14,-144.97C383.73,-144.02 347.27,-146.68 319.86,-163 297.1,-176.55 280.93,-202.49 271.15,-222.53"/>
<polygon fill="black" stroke="black" points="267.88,-221.27 266.86,-231.82 274.23,-224.2 267.88,-221.27"/>
<text text-anchor="middle" x="349.36" y="-175.8" font-family="Verdana" font-size="9.00">Asset Data</text>
<text text-anchor="middle" x="349.36" y="-165.8" font-family="Verdana" font-size="9.00">(JSON)</text>
</g>
<!-- Compiler -->
<g id="node5" class="node">
<title>Compiler</title>
<path fill="white" stroke="black" d="M684.36,-52C684.36,-52 607.36,-52 607.36,-52 601.36,-52 595.36,-46 595.36,-40 595.36,-40 595.36,-28 595.36,-28 595.36,-22 601.36,-16 607.36,-16 607.36,-16 684.36,-16 684.36,-16 690.36,-16 696.36,-22 696.36,-28 696.36,-28 696.36,-40 696.36,-40 696.36,-46 690.36,-52 684.36,-52"/>
<text text-anchor="middle" x="645.86" y="-37" font-family="Verdana" font-size="10.00">SpriteCompiler</text>
<text text-anchor="middle" x="645.86" y="-26" font-family="Verdana" font-size="10.00">(Gemini AI)</text>
</g>
<!-- FastAPI&#45;&gt;Compiler -->
<g id="edge2" class="edge">
<title>FastAPI&#45;&gt;Compiler</title>
<path fill="none" stroke="black" d="M470.24,-130.76C484.01,-117.43 504,-99.55 523.86,-87 543.02,-74.89 565.43,-64.23 585.71,-55.71"/>
<polygon fill="black" stroke="black" points="587.25,-58.86 595.17,-51.82 584.59,-52.38 587.25,-58.86"/>
<text text-anchor="middle" x="546.86" y="-99.8" font-family="Verdana" font-size="9.00">Transform</text>
<text text-anchor="middle" x="546.86" y="-89.8" font-family="Verdana" font-size="9.00">Prompt</text>
</g>
<!-- Pygame -->
<g id="node6" class="node">
<title>Pygame</title>
<path fill="white" stroke="black" d="M691.86,-106C691.86,-106 599.86,-106 599.86,-106 593.86,-106 587.86,-100 587.86,-94 587.86,-94 587.86,-82 587.86,-82 587.86,-76 593.86,-70 599.86,-70 599.86,-70 691.86,-70 691.86,-70 697.86,-70 703.86,-76 703.86,-82 703.86,-82 703.86,-94 703.86,-94 703.86,-100 697.86,-106 691.86,-106"/>
<text text-anchor="middle" x="645.86" y="-91" font-family="Verdana" font-size="10.00">Pygame Engine</text>
<text text-anchor="middle" x="645.86" y="-80" font-family="Verdana" font-size="10.00">(Video Rendering)</text>
</g>
<!-- FastAPI&#45;&gt;Pygame -->
<g id="edge3" class="edge">
<title>FastAPI&#45;&gt;Pygame</title>
<path fill="none" stroke="black" d="M491.63,-135.6C502.09,-132.1 513.38,-128.36 523.86,-125 541.42,-119.37 560.48,-113.45 578.16,-108.04"/>
<polygon fill="black" stroke="black" points="579.28,-111.36 587.82,-105.09 577.24,-104.66 579.28,-111.36"/>
<text text-anchor="middle" x="546.86" y="-137.8" font-family="Verdana" font-size="9.00">Render</text>
<text text-anchor="middle" x="546.86" y="-127.8" font-family="Verdana" font-size="9.00">Video</text>
</g>
<!-- DB -->
<g id="node7" class="node">
<title>DB</title>
<path fill="#eeeeee" stroke="black" d="M687.36,-169.05C687.36,-171.51 668.76,-173.5 645.86,-173.5 622.96,-173.5 604.36,-171.51 604.36,-169.05 604.36,-169.05 604.36,-128.95 604.36,-128.95 604.36,-126.49 622.96,-124.5 645.86,-124.5 668.76,-124.5 687.36,-126.49 687.36,-128.95 687.36,-128.95 687.36,-169.05 687.36,-169.05"/>
<path fill="none" stroke="black" d="M687.36,-169.05C687.36,-166.59 668.76,-164.59 645.86,-164.59 622.96,-164.59 604.36,-166.59 604.36,-169.05"/>
<text text-anchor="middle" x="645.86" y="-152" font-family="Verdana" font-size="10.00">SQLite DB</text>
<text text-anchor="middle" x="645.86" y="-141" font-family="Verdana" font-size="10.00">(Metadata)</text>
</g>
<!-- FastAPI&#45;&gt;DB -->
<g id="edge4" class="edge">
<title>FastAPI&#45;&gt;DB</title>
<path fill="none" stroke="black" d="M491.78,-149C521.36,-149 562.09,-149 594.1,-149"/>
<polygon fill="black" stroke="black" points="594.16,-152.5 604.16,-149 594.16,-145.5 594.16,-152.5"/>
<text text-anchor="middle" x="546.86" y="-151.8" font-family="Verdana" font-size="9.00">Persist</text>
</g>
</g>
</svg>
