<?xml version="1.0" encoding="UTF-8" standalone="no"?>
<!DOCTYPE svg PUBLIC "-//W3C//DTD SVG 1.1//EN"
 "http://www.w3.org/Graphics/SVG/1.1/DTD/svg11.dtd">
<!-- Generated by graphviz version 2.43.0 (0)
 -->
<!-- Title: PersistenceFlow Pages: 1 -->
<svg width="706pt" height="174pt"
 viewBox="0.00 0.00 706.00 174.00" xmlns="http://www.w3.org/2000/svg" xmlns:xlink="http://www.w3.org/1999/xlink">
<g id="graph0" class="graph" transform="scale(1 1) rotate(0) translate(4 170)">
<title>PersistenceFlow</title>
<polygon fill="white" stroke="transparent" points="-4,4 -4,-170 702,-170 702,4 -4,4"/>
<!-- User -->
<g id="node1" class="node">
<title>User</title>
<ellipse fill="#e1f5fe" stroke="#01579b" cx="27" cy="-86" rx="27" ry="18"/>
<text text-anchor="middle" x="27" y="-82.9" font-family="Arial" font-size="12.00">User</text>
</g>
<!-- Frontend -->
<g id="node2" class="node">
<title>Frontend</title>
<polygon fill="#f3e5f5" stroke="#7b1fa2" points="250,-104 151,-104 151,-68 250,-68 250,-104"/>
<text text-anchor="middle" x="200.5" y="-89.4" font-family="Arial" font-size="12.00">React Frontend</text>
<text text-anchor="middle" x="200.5" y="-76.4" font-family="Arial" font-size="12.00">(AppState)</text>
</g>
<!-- User&#45;&gt;Frontend -->
<g id="edge1" class="edge">
<title>User&#45;&gt;Frontend</title>
<path fill="none" stroke="#4a148c" d="M54.05,-86C76.93,-86 111.07,-86 140.53,-86"/>
<polygon fill="#4a148c" stroke="#4a148c" points="140.73,-89.5 150.73,-86 140.73,-82.5 140.73,-89.5"/>
<text text-anchor="middle" x="102.5" y="-89" font-family="Arial" font-size="10.00">Refresh/Open</text>
</g>
<!-- Frontend&#45;&gt;Frontend -->
<g id="edge10" class="edge">
<title>Frontend&#45;&gt;Frontend</title>
<path fill="none" stroke="#4a148c" d="M182.77,-104.15C180.04,-113.54 185.95,-122 200.5,-122 209.36,-122 215.02,-118.86 217.47,-114.28"/>
<polygon fill="#4a148c" stroke="#4a148c" points="220.97,-114.39 218.23,-104.15 213.99,-113.86 220.97,-114.39"/>
<text text-anchor="middle" x="200.5" y="-125" font-family="Arial" font-size="10.00">9. Re&#45;select Asset</text>
</g>
<!-- Backend -->
<g id="node3" class="node">
<title>Backend</title>
<polygon fill="#f3e5f5" stroke="#7b1fa2" points="468,-138 358,-138 358,-102 468,-102 468,-138"/>
<text text-anchor="middle" x="413" y="-123.4" font-family="Arial" font-size="12.00">FastAPI Backend</text>
<text text-anchor="middle" x="413" y="-110.4" font-family="Arial" font-size="12.00">(Logic)</text>
</g>
<!-- Frontend&#45;&gt;Backend -->
<g id="edge4" class="edge">
<title>Frontend&#45;&gt;Backend</title>
<path fill="none" stroke="#4a148c" d="M214.16,-104.01C226.06,-119.25 245.4,-139.99 268,-149 299.93,-161.72 338.15,-153.01 367.18,-141.91"/>
<polygon fill="#4a148c" stroke="#4a148c" points="368.7,-145.07 376.66,-138.08 366.07,-138.58 368.7,-145.07"/>
<text text-anchor="middle" x="304" y="-158" font-family="Arial" font-size="10.00">3. GET /api/me</text>
</g>
<!-- Frontend&#45;&gt;Backend -->
<g id="edge6" class="edge">
<title>Frontend&#45;&gt;Backend</title>
<path fill="none" stroke="#4a148c" d="M236.21,-104.06C246.21,-108.45 257.31,-112.58 268,-115 293.62,-120.81 322.46,-122.69 347.56,-122.9"/>
<polygon fill="#4a148c" stroke="#4a148c" points="347.71,-126.4 357.7,-122.89 347.7,-119.4 347.71,-126.4"/>
<text text-anchor="middle" x="304" y="-125" font-family="Arial" font-size="10.00">5. GET assets</text>
</g>
<!-- LocalStorage -->
<g id="node5" class="node">
<title>LocalStorage</title>
<polygon fill="#fff9c4" stroke="#fbc02d" points="449,-36 371,-36 371,0 455,0 455,-30 449,-36"/>
<polyline fill="none" stroke="#fbc02d" points="449,-36 449,-30 "/>
<polyline fill="none" stroke="#fbc02d" points="455,-30 449,-30 "/>
<text text-anchor="middle" x="413" y="-21.4" font-family="Arial" font-size="12.00">Browser</text>
<text text-anchor="middle" x="413" y="-8.4" font-family="Arial" font-size="12.00">localStorage</text>
</g>
<!-- Frontend&#45;&gt;LocalStorage -->
<g id="edge2" class="edge">
<title>Frontend&#45;&gt;LocalStorage</title>
<path fill="none" stroke="#4a148c" d="M240.5,-67.86C249.44,-64.02 258.97,-60.17 268,-57 298.36,-46.33 333.17,-36.83 360.96,-29.88"/>
<polygon fill="#4a148c" stroke="#4a148c" points="361.99,-33.23 370.86,-27.44 360.31,-26.44 361.99,-33.23"/>
<text text-anchor="middle" x="304" y="-60" font-family="Arial" font-size="10.00">1. Read session</text>
</g>
<!-- Backend&#45;&gt;Frontend -->
<g id="edge5" class="edge">
<title>Backend&#45;&gt;Frontend</title>
<path fill="none" stroke="#4a148c" d="M357.85,-107.42C351.84,-106.19 345.8,-105.02 340,-104 313.87,-99.41 284.77,-95.45 260.02,-92.43"/>
<polygon fill="#4a148c" stroke="#4a148c" points="260.4,-88.95 250.05,-91.23 259.57,-95.9 260.4,-88.95"/>
<text text-anchor="middle" x="304" y="-107" font-family="Arial" font-size="10.00">4. User Scope</text>
</g>
<!-- Backend&#45;&gt;Frontend -->
<g id="edge9" class="edge">
<title>Backend&#45;&gt;Frontend</title>
<path fill="none" stroke="#4a148c" d="M388.45,-101.97C375.04,-92.85 357.46,-82.72 340,-78 314.35,-71.07 285.1,-71.59 260.1,-74.44"/>
<polygon fill="#4a148c" stroke="#4a148c" points="259.5,-70.99 250.03,-75.73 260.4,-77.93 259.5,-70.99"/>
<text text-anchor="middle" x="304" y="-81" font-family="Arial" font-size="10.00">8. Assets list</text>
</g>
<!-- Storage -->
<g id="node4" class="node">
<title>Storage</title>
<polygon fill="#f3e5f5" stroke="#7b1fa2" points="698,-138 581,-138 581,-102 698,-102 698,-138"/>
<text text-anchor="middle" x="639.5" y="-123.4" font-family="Arial" font-size="12.00">Storage Provider</text>
<text text-anchor="middle" x="639.5" y="-110.4" font-family="Arial" font-size="12.00">(Filesystem/Cloud)</text>
</g>
<!-- Backend&#45;&gt;Storage -->
<g id="edge7" class="edge">
<title>Backend&#45;&gt;Storage</title>
<path fill="none" stroke="#4a148c" d="M468.06,-120C498.98,-120 538.05,-120 570.98,-120"/>
<polygon fill="#4a148c" stroke="#4a148c" points="570.99,-123.5 580.99,-120 570.99,-116.5 570.99,-123.5"/>
<text text-anchor="middle" x="524.5" y="-123" font-family="Arial" font-size="10.00">6. Map to user dir</text>
</g>
<!-- Storage&#45;&gt;Backend -->
<g id="edge8" class="edge">
<title>Storage&#45;&gt;Backend</title>
<path fill="none" stroke="#4a148c" d="M580.96,-107.36C574.92,-106.4 568.85,-105.58 563,-105 528.94,-101.65 520.04,-101.49 486,-105 483.44,-105.26 480.84,-105.58 478.23,-105.93"/>
<polygon fill="#4a148c" stroke="#4a148c" points="477.42,-102.52 468.07,-107.49 478.48,-109.44 477.42,-102.52"/>
<text text-anchor="middle" x="524.5" y="-108" font-family="Arial" font-size="10.00">7. Asset files</text>
</g>
<!-- LocalStorage&#45;&gt;Frontend -->
<g id="edge3" class="edge">
<title>LocalStorage&#45;&gt;Frontend</title>
<path fill="none" stroke="#4a148c" d="M370.92,-10.62C341.17,-7.13 300.62,-6.3 268,-20 248.57,-28.16 231.77,-44.97 219.92,-59.58"/>
<polygon fill="#4a148c" stroke="#4a148c" points="216.88,-57.79 213.53,-67.85 222.42,-62.08 216.88,-57.79"/>
<text text-anchor="middle" x="304" y="-23" font-family="Arial" font-size="10.00">2. Restore keys</text>
</g>
</g>
</svg>
