<?xml version="1.0" encoding="UTF-8" standalone="no"?>
<!DOCTYPE svg PUBLIC "-//W3C//DTD SVG 1.1//EN"
 "http://www.w3.org/Graphics/SVG/1.1/DTD/svg11.dtd">
<!-- Generated by graphviz version 2.43.0 (0)
 -->
<!-- Title: QAReasoningLoop Pages: 1 -->
<svg width="309pt" height="575pt"
 viewBox="0.00 0.00 309.00 575.00" xmlns="http://www.w3.org/2000/svg" xmlns:xlink="http://www.w3.org/1999/xlink">
<g id="graph0" class="graph" transform="scale(1 1) rotate(0) translate(4 571)">
<title>QAReasoningLoop</title>
<polygon fill="white" stroke="transparent" points="-4,4 -4,-571 305,-571 305,4 -4,4"/>
<!-- D -->
<g id="node1" class="node">
<title>D</title>
<polygon fill="lightblue" stroke="black" points="273.5,-567 91.5,-567 91.5,-531 273.5,-531 273.5,-567"/>
<text text-anchor="middle" x="182.5" y="-545.3" font-family="Verdana" font-size="14.00">1. DETECT: Parse failure</text>
</g>
<!-- L -->
<g id="node2" class="node">
<title>L</title>
<polygon fill="lightblue" stroke="black" points="284.5,-494 80.5,-494 80.5,-458 284.5,-458 284.5,-494"/>
<text text-anchor="middle" x="182.5" y="-472.3" font-family="Verdana" font-size="14.00">2. LOCATE: Find failing test</text>
</g>
<!-- D&#45;&gt;L -->
<g id="edge1" class="edge">
<title>D&#45;&gt;L</title>
<path fill="none" stroke="black" d="M182.5,-530.81C182.5,-522.79 182.5,-513.05 182.5,-504.07"/>
<polygon fill="black" stroke="black" points="186,-504.03 182.5,-494.03 179,-504.03 186,-504.03"/>
</g>
<!-- T -->
<g id="node3" class="node">
<title>T</title>
<polygon fill="lightblue" stroke="black" points="301,-421 64,-421 64,-385 301,-385 301,-421"/>
<text text-anchor="middle" x="182.5" y="-399.3" font-family="Verdana" font-size="14.00">3. TRACE: Read code&#45;under&#45;test</text>
</g>
<!-- L&#45;&gt;T -->
<g id="edge2" class="edge">
<title>L&#45;&gt;T</title>
<path fill="none" stroke="black" d="M182.5,-457.81C182.5,-449.79 182.5,-440.05 182.5,-431.07"/>
<polygon fill="black" stroke="black" points="186,-431.03 182.5,-421.03 179,-431.03 186,-431.03"/>
</g>
<!-- H -->
<g id="node4" class="node">
<title>H</title>
<polygon fill="lightblue" stroke="black" points="291.5,-348 73.5,-348 73.5,-312 291.5,-312 291.5,-348"/>
<text text-anchor="middle" x="182.5" y="-326.3" font-family="Verdana" font-size="14.00">4. HYPOTHESIZE: Root cause</text>
</g>
<!-- T&#45;&gt;H -->
<g id="edge3" class="edge">
<title>T&#45;&gt;H</title>
<path fill="none" stroke="black" d="M182.5,-384.81C182.5,-376.79 182.5,-367.05 182.5,-358.07"/>
<polygon fill="black" stroke="black" points="186,-358.03 182.5,-348.03 179,-358.03 186,-358.03"/>
</g>
<!-- V -->
<g id="node5" class="node">
<title>V</title>
<polygon fill="lightblue" stroke="black" points="223,-275 4,-275 4,-239 223,-239 223,-275"/>
<text text-anchor="middle" x="113.5" y="-253.3" font-family="Verdana" font-size="14.00">5. VERIFY: Check hypotheses</text>
</g>
<!-- H&#45;&gt;V -->
<g id="edge4" class="edge">
<title>H&#45;&gt;V</title>
<path fill="none" stroke="black" d="M165.8,-311.81C157.24,-303 146.66,-292.13 137.27,-282.46"/>
<polygon fill="black" stroke="black" points="139.53,-279.76 130.05,-275.03 134.51,-284.64 139.53,-279.76"/>
</g>
<!-- I -->
<g id="node6" class="node">
<title>I</title>
<polygon fill="lightblue" stroke="black" points="223,-192 0,-192 0,-156 223,-156 223,-192"/>
<text text-anchor="middle" x="111.5" y="-170.3" font-family="Verdana" font-size="14.00">6. IMPLEMENT: Fix source/test</text>
</g>
<!-- V&#45;&gt;I -->
<g id="edge5" class="edge">
<title>V&#45;&gt;I</title>
<path fill="none" stroke="black" d="M113.08,-238.82C112.81,-228.19 112.47,-214.31 112.17,-202.2"/>
<polygon fill="black" stroke="black" points="115.67,-202.06 111.92,-192.15 108.67,-202.24 115.67,-202.06"/>
</g>
<!-- C -->
<g id="node7" class="node">
<title>C</title>
<polygon fill="lightblue" stroke="black" points="278.5,-119 84.5,-119 84.5,-83 278.5,-83 278.5,-119"/>
<text text-anchor="middle" x="181.5" y="-97.3" font-family="Verdana" font-size="14.00">7. CONFIRM: Re&#45;run tests</text>
</g>
<!-- I&#45;&gt;C -->
<g id="edge6" class="edge">
<title>I&#45;&gt;C</title>
<path fill="none" stroke="black" d="M128.45,-155.81C137.22,-146.92 148.07,-135.91 157.67,-126.17"/>
<polygon fill="black" stroke="black" points="160.18,-128.61 164.71,-119.03 155.2,-123.69 160.18,-128.61"/>
</g>
<!-- C&#45;&gt;H -->
<g id="edge7" class="edge">
<title>C&#45;&gt;H</title>
<path fill="none" stroke="red" stroke-dasharray="5,2" d="M203.84,-119.2C214.38,-128.76 225.86,-141.61 231.5,-156 250.8,-205.24 250.55,-225.66 231.5,-275 227.2,-286.14 219.41,-296.41 211.29,-304.93"/>
<polygon fill="red" stroke="red" points="208.83,-302.44 204.15,-311.95 213.74,-307.43 208.83,-302.44"/>
<text text-anchor="middle" x="256.5" y="-213" font-family="Verdana" font-size="10.00">FAIL</text>
</g>
<!-- Done -->
<g id="node8" class="node">
<title>Done</title>
<polygon fill="lightgreen" stroke="black" points="210.5,-36 152.5,-36 152.5,0 210.5,0 210.5,-36"/>
<text text-anchor="middle" x="181.5" y="-14.3" font-family="Verdana" font-size="14.00">DONE</text>
</g>
<!-- C&#45;&gt;Done -->
<g id="edge8" class="edge">
<title>C&#45;&gt;Done</title>
<path fill="none" stroke="green" d="M181.5,-82.82C181.5,-72.19 181.5,-58.31 181.5,-46.2"/>
<polygon fill="green" stroke="green" points="185,-46.15 181.5,-36.15 178,-46.15 185,-46.15"/>
<text text-anchor="middle" x="194" y="-57" font-family="Verdana" font-size="10.00">PASS</text>
</g>
</g>
</svg>
