<?xml version="1.0" encoding="UTF-8" standalone="no"?>
<!DOCTYPE svg PUBLIC "-//W3C//DTD SVG 1.1//EN"
 "http://www.w3.org/Graphics/SVG/1.1/DTD/svg11.dtd">
<!-- Generated by graphviz version 2.43.0 (0)
 -->
<!-- Title: ReactTheatreSync Pages: 1 -->
<svg width="489pt" height="216pt"
 viewBox="0.00 0.00 489.00 216.00" xmlns="http://www.w3.org/2000/svg" xmlns:xlink="http://www.w3.org/1999/xlink">
<g id="graph0" class="graph" transform="scale(1 1) rotate(0) translate(4 212)">
<title>ReactTheatreSync</title>
<polygon fill="white" stroke="transparent" points="-4,4 -4,-212 485,-212 485,4 -4,4"/>
<g id="clust1" class="cluster">
<title>cluster_react</title>
<polygon fill="white" stroke="black" points="83,-123 83,-200 473,-200 473,-123 83,-123"/>
<text text-anchor="middle" x="278" y="-184.8" font-family="Times,serif" font-size="14.00">React Context / Hooks</text>
</g>
<g id="clust2" class="cluster">
<title>cluster_theatre</title>
<polygon fill="white" stroke="black" points="8,-8 8,-83 329,-83 329,-8 8,-8"/>
<text text-anchor="middle" x="168.5" y="-67.8" font-family="Times,serif" font-size="14.00">Theatre.js Engine</text>
</g>
<!-- RS -->
<g id="node1" class="node">
<title>RS</title>
<polygon fill="lightyellow" stroke="black" points="465,-169 257,-169 257,-131 465,-131 465,-169"/>
<text text-anchor="middle" x="361" y="-153.8" font-family="Verdana" font-size="14.00">React State:</text>
<text text-anchor="middle" x="361" y="-138.8" font-family="Verdana" font-size="14.00">selectedSprite, currentTime</text>
</g>
<!-- TE -->
<g id="node3" class="node">
<title>TE</title>
<polygon fill="lightblue" stroke="black" points="320.5,-52 173.5,-52 173.5,-16 320.5,-16 320.5,-52"/>
<text text-anchor="middle" x="247" y="-30.3" font-family="Verdana" font-size="14.00">Theatre.js Runtime</text>
</g>
<!-- RS&#45;&gt;TE -->
<g id="edge1" class="edge">
<title>RS&#45;&gt;TE</title>
<path fill="none" stroke="black" d="M357.41,-130.94C354.23,-118.62 348.57,-102.51 339,-91 327.51,-77.17 311.68,-65.84 296.38,-57.07"/>
<polygon fill="black" stroke="black" points="297.93,-53.92 287.48,-52.2 294.57,-60.07 297.93,-53.92"/>
<text text-anchor="middle" x="381.5" y="-105" font-family="Verdana" font-size="10.00">useEffect</text>
<text text-anchor="middle" x="381.5" y="-94" font-family="Verdana" font-size="10.00">(props sync)</text>
</g>
<!-- UAC -->
<g id="node2" class="node">
<title>UAC</title>
<polygon fill="lightyellow" stroke="black" points="238.5,-168 91.5,-168 91.5,-132 238.5,-132 238.5,-168"/>
<text text-anchor="middle" x="165" y="-146.3" font-family="Verdana" font-size="14.00">useAssetController</text>
</g>
<!-- UAC&#45;&gt;TE -->
<g id="edge3" class="edge">
<title>UAC&#45;&gt;TE</title>
<path fill="none" stroke="black" d="M163.26,-131.9C162.81,-119.73 163.91,-103.39 171,-91 178.67,-77.59 190.99,-66.46 203.5,-57.76"/>
<polygon fill="black" stroke="black" points="205.68,-60.52 212.14,-52.12 201.85,-54.65 205.68,-60.52"/>
<text text-anchor="middle" x="198" y="-105" font-family="Verdana" font-size="10.00">Imperative</text>
<text text-anchor="middle" x="198" y="-94" font-family="Verdana" font-size="10.00">Calls</text>
</g>
<!-- TE&#45;&gt;RS -->
<g id="edge2" class="edge">
<title>TE&#45;&gt;RS</title>
<path fill="none" stroke="black" stroke-dasharray="5,2" d="M238.1,-62.02C234.5,-78.3 233.37,-98.6 244,-113 249.43,-120.35 256.34,-126.25 264.07,-130.97"/>
<polygon fill="black" stroke="black" points="241.57,-62.56 240.71,-52 234.8,-60.79 241.57,-62.56"/>
<text text-anchor="middle" x="289.5" y="-105" font-family="Verdana" font-size="10.00">Callbacks</text>
<text text-anchor="middle" x="289.5" y="-94" font-family="Verdana" font-size="10.00">(onSpriteSelected)</text>
</g>
<!-- LR -->
<g id="node4" class="node">
<title>LR</title>
<polygon fill="lightgreen" stroke="black" points="155.5,-52 16.5,-52 16.5,-16 155.5,-16 155.5,-52"/>
<text text-anchor="middle" x="86" y="-30.3" font-family="Verdana" font-size="14.00">Layer.js Runtimes</text>
</g>
</g>
</svg>
