<?xml version="1.0" encoding="UTF-8" standalone="no"?>
<!DOCTYPE svg PUBLIC "-//W3C//DTD SVG 1.1//EN"
 "http://www.w3.org/Graphics/SVG/1.1/DTD/svg11.dtd">
<!-- Generated by graphviz version 2.43.0 (0)
 -->
<!-- Title: G Pages: 1 -->
<svg width="545pt" height="504pt"
 viewBox="0.00 0.00 545.00 504.00" xmlns="http://www.w3.org/2000/svg" xmlns:xlink="http://www.w3.org/1999/xlink">
<g id="graph0" class="graph" transform="scale(1 1) rotate(0) translate(4 500)">
<title>G</title>
<polygon fill="white" stroke="transparent" points="-4,4 -4,-500 541,-500 541,4 -4,4"/>
<g id="clust1" class="cluster">
<title>cluster_scene_editor</title>
<polygon fill="white" stroke="#8b5cf6" points="8,-8 8,-488 279,-488 279,-8 8,-8"/>
<text text-anchor="middle" x="143.5" y="-472.8" font-family="Times,serif" font-size="14.00" fill="#e0e0e0">Scene Editor</text>
</g>
<g id="clust2" class="cluster">
<title>cluster_left_panel</title>
<polygon fill="white" stroke="#8b5cf6" points="109,-211 109,-394 249,-394 249,-211 109,-211"/>
<text text-anchor="middle" x="179" y="-378.8" font-family="Times,serif" font-size="14.00" fill="#e0e0e0">Left Panel</text>
</g>
<g id="clust3" class="cluster">
<title>cluster_right_panel</title>
<polygon fill="white" stroke="#8b5cf6" points="16,-16 16,-178 259,-178 259,-16 16,-16"/>
<text text-anchor="middle" x="137.5" y="-162.8" font-family="Times,serif" font-size="14.00" fill="#e0e0e0">Right Panel</text>
</g>
<g id="clust4" class="cluster">
<title>cluster_engine</title>
<polygon fill="white" stroke="#8b5cf6" points="287,-103 287,-286 529,-286 529,-103 287,-103"/>
<text text-anchor="middle" x="408" y="-270.8" font-family="Times,serif" font-size="14.00" fill="#e0e0e0">Engine</text>
</g>
<!-- GDV -->
<g id="node1" class="node">
<title>GDV</title>
<polygon fill="#2d2d2d" stroke="#8b5cf6" points="248.5,-457 99.5,-457 99.5,-421 248.5,-421 248.5,-457"/>
<text text-anchor="middle" x="174" y="-435.3" font-family="Times,serif" font-size="14.00" fill="#e0e0e0">GenericDetailView</text>
</g>
<!-- TS -->
<g id="node2" class="node">
<title>TS</title>
<polygon fill="#2d2d2d" stroke="#8b5cf6" points="230.5,-363 117.5,-363 117.5,-327 230.5,-327 230.5,-363"/>
<text text-anchor="middle" x="174" y="-341.3" font-family="Times,serif" font-size="14.00" fill="#e0e0e0">TheatreStage</text>
</g>
<!-- GDV&#45;&gt;TS -->
<g id="edge1" class="edge">
<title>GDV&#45;&gt;TS</title>
<path fill="none" stroke="black" d="M174,-420.7C174,-407.46 174,-388.95 174,-373.66"/>
<polygon fill="black" stroke="black" points="177.5,-373.23 174,-363.23 170.5,-373.23 177.5,-373.23"/>
</g>
<!-- TL -->
<g id="node3" class="node">
<title>TL</title>
<polygon fill="#3b82f6" stroke="#8b5cf6" points="240.5,-255 117.5,-255 117.5,-219 240.5,-219 240.5,-255"/>
<text text-anchor="middle" x="179" y="-233.3" font-family="Times,serif" font-size="14.00" fill="#e0e0e0">TimelineEditor</text>
</g>
<!-- GDV&#45;&gt;TL -->
<g id="edge2" class="edge">
<title>GDV&#45;&gt;TL</title>
<path fill="none" stroke="black" d="M212.1,-420.93C222.95,-414.14 233.56,-405.23 240,-394 258.83,-361.17 243.89,-346.83 245,-309 245.2,-302.34 247.8,-300.05 245,-294 238.95,-280.94 228.2,-269.82 217.1,-261.01"/>
<polygon fill="black" stroke="black" points="219.13,-258.16 209.02,-255.01 214.96,-263.78 219.13,-258.16"/>
</g>
<!-- BE -->
<g id="node4" class="node">
<title>BE</title>
<polygon fill="#2d2d2d" stroke="#8b5cf6" points="250.5,-147 125.5,-147 125.5,-111 250.5,-111 250.5,-147"/>
<text text-anchor="middle" x="188" y="-125.3" font-family="Times,serif" font-size="14.00" fill="#e0e0e0">BehaviorEditor</text>
</g>
<!-- GDV&#45;&gt;BE -->
<g id="edge3" class="edge">
<title>GDV&#45;&gt;BE</title>
<path fill="none" stroke="black" d="M132.7,-420.85C121.73,-414.17 111.22,-405.34 105,-394 65.9,-322.68 80.03,-288.41 105,-211 112.72,-187.07 132.66,-167.21 151.06,-153.15"/>
<polygon fill="black" stroke="black" points="153.33,-155.82 159.35,-147.1 149.21,-150.16 153.33,-155.82"/>
</g>
<!-- SE -->
<g id="node5" class="node">
<title>SE</title>
<polygon fill="#3b82f6" stroke="#8b5cf6" points="224.5,-60 117.5,-60 117.5,-24 224.5,-24 224.5,-60"/>
<text text-anchor="middle" x="171" y="-38.3" font-family="Times,serif" font-size="14.00" fill="#e0e0e0">SoundEditor</text>
</g>
<!-- GDV&#45;&gt;SE -->
<g id="edge4" class="edge">
<title>GDV&#45;&gt;SE</title>
<path fill="none" stroke="black" d="M218.06,-420.95C230.81,-414.2 243.76,-405.3 253,-394 267.33,-376.48 270,-368.63 270,-346 270,-346 270,-346 270,-128 270,-99.75 246.51,-78.86 222.42,-64.85"/>
<polygon fill="black" stroke="black" points="224.01,-61.74 213.56,-60.01 220.65,-67.88 224.01,-61.74"/>
</g>
<!-- LL -->
<g id="node6" class="node">
<title>LL</title>
<polygon fill="#2d2d2d" stroke="#8b5cf6" points="108,-147 24,-147 24,-111 108,-111 108,-147"/>
<text text-anchor="middle" x="66" y="-125.3" font-family="Times,serif" font-size="14.00" fill="#e0e0e0">LayerList</text>
</g>
<!-- GDV&#45;&gt;LL -->
<g id="edge5" class="edge">
<title>GDV&#45;&gt;LL</title>
<path fill="none" stroke="black" d="M110.9,-420.96C98.03,-414.57 85.99,-405.86 78,-394 28.67,-320.84 46.69,-208.61 58.7,-157.3"/>
<polygon fill="black" stroke="black" points="62.17,-157.86 61.15,-147.31 55.37,-156.19 62.17,-157.86"/>
</g>
<!-- TS&#45;&gt;TL -->
<g id="edge6" class="edge">
<title>TS&#45;&gt;TL</title>
<path fill="none" stroke="#e0e0e0" d="M151.57,-326.86C146.48,-321.73 141.76,-315.67 139,-309 136.45,-302.84 136.97,-300.35 139,-294 142.57,-282.85 149.27,-272.03 156.18,-262.92"/>
<polygon fill="#e0e0e0" stroke="#e0e0e0" points="158.95,-265.06 162.5,-255.08 153.5,-260.67 158.95,-265.06"/>
<text text-anchor="middle" x="190" y="-297.8" font-family="Times,serif" font-size="14.00" fill="#e0e0e0">playhead sync</text>
</g>
<!-- TH -->
<g id="node7" class="node">
<title>TH</title>
<polygon fill="#2d2d2d" stroke="#8b5cf6" points="383.5,-255 294.5,-255 294.5,-219 383.5,-219 383.5,-255"/>
<text text-anchor="middle" x="339" y="-233.3" font-family="Times,serif" font-size="14.00" fill="#e0e0e0">Theatre.js</text>
</g>
<!-- TS&#45;&gt;TH -->
<g id="edge11" class="edge">
<title>TS&#45;&gt;TH</title>
<path fill="none" stroke="#e0e0e0" d="M279,-285.94C290.51,-277.54 301.4,-269.07 310.66,-261.64"/>
<polygon fill="#e0e0e0" stroke="#e0e0e0" points="312.97,-264.27 318.53,-255.26 308.56,-258.84 312.97,-264.27"/>
<text text-anchor="middle" x="307.5" y="-297.8" font-family="Times,serif" font-size="14.00" fill="#e0e0e0">render loop</text>
</g>
<!-- TL&#45;&gt;BE -->
<g id="edge7" class="edge">
<title>TL&#45;&gt;BE</title>
<path fill="none" stroke="#e0e0e0" d="M144.13,-218.88C131.86,-210.3 122.37,-198.96 128,-186 133.48,-173.4 143.34,-162.35 153.51,-153.46"/>
<polygon fill="#e0e0e0" stroke="#e0e0e0" points="155.75,-156.15 161.27,-147.1 151.32,-150.73 155.75,-156.15"/>
<text text-anchor="middle" x="196" y="-189.8" font-family="Times,serif" font-size="14.00" fill="#e0e0e0">keyframe selection</text>
</g>
<!-- BE&#45;&gt;SE -->
<g id="edge8" class="edge">
<title>BE&#45;&gt;SE</title>
<path fill="none" stroke="#e0e0e0" d="M143.71,-110.93C134.95,-107.98 125.75,-105.16 117,-103 102.17,-99.34 58.98,-104.56 49,-93 27.76,-68.41 67.6,-55.71 107.3,-49.28"/>
<polygon fill="#e0e0e0" stroke="#e0e0e0" points="107.98,-52.72 117.36,-47.78 106.95,-45.8 107.98,-52.72"/>
<text text-anchor="middle" x="102" y="-81.8" font-family="Times,serif" font-size="14.00" fill="#e0e0e0">sound triggers</text>
</g>
<!-- LY -->
<g id="node8" class="node">
<title>LY</title>
<polygon fill="#2d2d2d" stroke="#8b5cf6" points="367,-147 295,-147 295,-111 367,-111 367,-147"/>
<text text-anchor="middle" x="331" y="-125.3" font-family="Times,serif" font-size="14.00" fill="#e0e0e0">Layer.js</text>
</g>
<!-- TH&#45;&gt;LY -->
<g id="edge9" class="edge">
<title>TH&#45;&gt;LY</title>
<path fill="none" stroke="black" d="M337.71,-218.97C336.46,-202.38 334.54,-176.88 333.07,-157.43"/>
<polygon fill="black" stroke="black" points="336.55,-157.05 332.31,-147.34 329.57,-157.58 336.55,-157.05"/>
</g>
<!-- AM -->
<g id="node9" class="node">
<title>AM</title>
<polygon fill="#3b82f6" stroke="#8b5cf6" points="521,-147 385,-147 385,-111 521,-111 521,-147"/>
<text text-anchor="middle" x="453" y="-125.3" font-family="Times,serif" font-size="14.00" fill="#e0e0e0">AudioManager.js</text>
</g>
<!-- TH&#45;&gt;AM -->
<g id="edge10" class="edge">
<title>TH&#45;&gt;AM</title>
<path fill="none" stroke="black" d="M357.32,-218.97C376.15,-201.46 405.66,-174.02 426.92,-154.25"/>
<polygon fill="black" stroke="black" points="429.41,-156.71 434.35,-147.34 424.64,-151.59 429.41,-156.71"/>
</g>
</g>
</svg>
