<?xml version="1.0" encoding="UTF-8" standalone="no"?>
<!DOCTYPE svg PUBLIC "-//W3C//DTD SVG 1.1//EN"
 "http://www.w3.org/Graphics/SVG/1.1/DTD/svg11.dtd">
<!-- Generated by graphviz version 2.43.0 (0)
 -->
<!-- Title: TimelineStateFlow Pages: 1 -->
<svg width="908pt" height="73pt"
 viewBox="0.00 0.00 908.00 73.00" xmlns="http://www.w3.org/2000/svg" xmlns:xlink="http://www.w3.org/1999/xlink">
<g id="graph0" class="graph" transform="scale(1 1) rotate(0) translate(4 69)">
<title>TimelineStateFlow</title>
<polygon fill="white" stroke="transparent" points="-4,4 -4,-69 904,-69 904,4 -4,4"/>
<!-- UI -->
<g id="node1" class="node">
<title>UI</title>
<polygon fill="lightyellow" stroke="black" points="170,-36 0,-36 0,0 170,0 170,-36"/>
<text text-anchor="middle" x="85" y="-14.3" font-family="Verdana" font-size="14.00">TimelineEditor (React)</text>
</g>
<!-- Stage -->
<g id="node2" class="node">
<title>Stage</title>
<polygon fill="orange" stroke="black" points="442,-36 272,-36 272,0 442,0 442,-36"/>
<text text-anchor="middle" x="357" y="-14.3" font-family="Verdana" font-size="14.00">TheatreStage (Bridge)</text>
</g>
<!-- UI&#45;&gt;Stage -->
<g id="edge1" class="edge">
<title>UI&#45;&gt;Stage</title>
<path fill="none" stroke="black" d="M170.32,-18C199.25,-18 231.81,-18 261.49,-18"/>
<polygon fill="black" stroke="black" points="261.86,-21.5 271.86,-18 261.86,-14.5 261.86,-21.5"/>
<text text-anchor="middle" x="221" y="-32" font-family="Verdana" font-size="10.00">currentTime /</text>
<text text-anchor="middle" x="221" y="-21" font-family="Verdana" font-size="10.00">isPlaying</text>
</g>
<!-- Engine -->
<g id="node3" class="node">
<title>Engine</title>
<polygon fill="lightblue" stroke="black" points="667,-36 536,-36 536,0 667,0 667,-36"/>
<text text-anchor="middle" x="601.5" y="-14.3" font-family="Verdana" font-size="14.00">Theatre.js (Core)</text>
</g>
<!-- Stage&#45;&gt;Engine -->
<g id="edge2" class="edge">
<title>Stage&#45;&gt;Engine</title>
<path fill="none" stroke="black" d="M442.13,-18C469.19,-18 498.96,-18 525.33,-18"/>
<polygon fill="black" stroke="black" points="525.63,-21.5 535.63,-18 525.63,-14.5 525.63,-21.5"/>
<text text-anchor="middle" x="489" y="-32" font-family="Verdana" font-size="10.00">setTime(t) /</text>
<text text-anchor="middle" x="489" y="-21" font-family="Verdana" font-size="10.00">update()</text>
</g>
<!-- Engine&#45;&gt;Stage -->
<g id="edge6" class="edge">
<title>Engine&#45;&gt;Stage</title>
<path fill="none" stroke="black" stroke-dasharray="5,2" d="M535.8,-5.1C529.8,-4.25 523.8,-3.52 518,-3 496.77,-1.09 473.96,-1.65 452.41,-3.38"/>
<polygon fill="black" stroke="black" points="451.92,0.09 442.27,-4.29 452.54,-6.89 451.92,0.09"/>
<text text-anchor="middle" x="489" y="-6" font-family="Verdana" font-size="10.00">Frame</text>
</g>
<!-- Layer -->
<g id="node4" class="node">
<title>Layer</title>
<polygon fill="lightgreen" stroke="black" points="900,-36 758,-36 758,0 900,0 900,-36"/>
<text text-anchor="middle" x="829" y="-14.3" font-family="Verdana" font-size="14.00">Layer.js (Runtime)</text>
</g>
<!-- Engine&#45;&gt;Layer -->
<g id="edge3" class="edge">
<title>Engine&#45;&gt;Layer</title>
<path fill="none" stroke="black" d="M667.12,-18C692.28,-18 721.37,-18 747.84,-18"/>
<polygon fill="black" stroke="black" points="747.85,-21.5 757.85,-18 747.85,-14.5 747.85,-21.5"/>
<text text-anchor="middle" x="712.5" y="-21" font-family="Verdana" font-size="10.00">apply(t)</text>
</g>
<!-- Layer&#45;&gt;Engine -->
<g id="edge5" class="edge">
<title>Layer&#45;&gt;Engine</title>
<path fill="none" stroke="black" stroke-dasharray="5,2" d="M757.53,-4.91C751.61,-4.14 745.71,-3.48 740,-3 715.64,-0.94 709.35,-0.8 685,-3 682.46,-3.23 679.89,-3.5 677.29,-3.8"/>
<polygon fill="black" stroke="black" points="676.67,-0.35 667.2,-5.1 677.57,-7.29 676.67,-0.35"/>
<text text-anchor="middle" x="712.5" y="-6" font-family="Verdana" font-size="10.00">Transforms</text>
</g>
<!-- Layer&#45;&gt;Layer -->
<g id="edge4" class="edge">
<title>Layer&#45;&gt;Layer</title>
<path fill="none" stroke="black" d="M808.01,-36.15C804.79,-45.54 811.78,-54 829,-54 839.49,-54 846.19,-50.86 849.09,-46.28"/>
<polygon fill="black" stroke="black" points="852.59,-46.42 849.99,-36.15 845.62,-45.81 852.59,-46.42"/>
<text text-anchor="middle" x="829" y="-57" font-family="Verdana" font-size="10.00">Interp Keyframes</text>
</g>
</g>
</svg>
