<?xml version="1.0" encoding="UTF-8" standalone="no"?>
<!DOCTYPE svg PUBLIC "-//W3C//DTD SVG 1.1//EN"
 "http://www.w3.org/Graphics/SVG/1.1/DTD/svg11.dtd">
<!-- Generated by graphviz version 2.43.0 (0)
 -->
<!-- Title: UserJourney Pages: 1 -->
<svg width="1096pt" height="153pt"
 viewBox="0.00 0.00 1096.00 153.00" xmlns="http://www.w3.org/2000/svg" xmlns:xlink="http://www.w3.org/1999/xlink">
<g id="graph0" class="graph" transform="scale(1 1) rotate(0) translate(4 149)">
<title>UserJourney</title>
<polygon fill="white" stroke="transparent" points="-4,4 -4,-149 1092,-149 1092,4 -4,4"/>
<g id="clust1" class="cluster">
<title>cluster_auth</title>
<polygon fill="#e6f3ff" stroke="#e6f3ff" points="8,-8 8,-137 330,-137 330,-8 8,-8"/>
<text text-anchor="middle" x="169" y="-121.8" font-family="Times,serif" font-size="14.00">Authentication</text>
</g>
<g id="clust2" class="cluster">
<title>cluster_dashboard</title>
<polygon fill="#fff0f0" stroke="#fff0f0" points="415,-45 415,-120 705,-120 705,-45 415,-45"/>
<text text-anchor="middle" x="560" y="-104.8" font-family="Times,serif" font-size="14.00">Dashboard</text>
</g>
<g id="clust3" class="cluster">
<title>cluster_editor</title>
<polygon fill="#f0fff0" stroke="#f0fff0" points="759,-19 759,-94 1080,-94 1080,-19 759,-19"/>
<text text-anchor="middle" x="919.5" y="-78.8" font-family="Times,serif" font-size="14.00">Scene Editor</text>
</g>
<!-- Login -->
<g id="node1" class="node">
<title>Login</title>
<path fill="#ffffff" stroke="black" d="M101,-78C101,-78 28,-78 28,-78 22,-78 16,-72 16,-66 16,-66 16,-54 16,-54 16,-48 22,-42 28,-42 28,-42 101,-42 101,-42 107,-42 113,-48 113,-54 113,-54 113,-66 113,-66 113,-72 107,-78 101,-78"/>
<text text-anchor="middle" x="64.5" y="-63" font-family="Arial" font-size="10.00">Login Screen</text>
<text text-anchor="middle" x="64.5" y="-52" font-family="Arial" font-size="10.00">(Improved Design)</text>
</g>
<!-- LocalAuth -->
<g id="node2" class="node">
<title>LocalAuth</title>
<path fill="#ffffff" stroke="black" d="M310,-106C310,-106 234,-106 234,-106 228,-106 222,-100 222,-94 222,-94 222,-82 222,-82 222,-76 228,-70 234,-70 234,-70 310,-70 310,-70 316,-70 322,-76 322,-82 322,-82 322,-94 322,-94 322,-100 316,-106 310,-106"/>
<text text-anchor="middle" x="272" y="-91" font-family="Arial" font-size="10.00">Local Theater</text>
<text text-anchor="middle" x="272" y="-80" font-family="Arial" font-size="10.00">(No Auth Required)</text>
</g>
<!-- Login&#45;&gt;LocalAuth -->
<g id="edge1" class="edge">
<title>Login&#45;&gt;LocalAuth</title>
<path fill="none" stroke="black" d="M113.16,-66.49C142.58,-70.5 180.56,-75.68 211.89,-79.95"/>
<polygon fill="black" stroke="black" points="211.43,-83.42 221.81,-81.3 212.37,-76.48 211.43,-83.42"/>
<text text-anchor="middle" x="167.5" y="-80.8" font-family="Arial" font-size="9.00">Click &#39;Enter Local&#39;</text>
</g>
<!-- CloudAuth -->
<g id="node3" class="node">
<title>CloudAuth</title>
<path fill="#ffffff" stroke="black" d="M303,-52C303,-52 241,-52 241,-52 235,-52 229,-46 229,-40 229,-40 229,-28 229,-28 229,-22 235,-16 241,-16 241,-16 303,-16 303,-16 309,-16 315,-22 315,-28 315,-28 315,-40 315,-40 315,-46 309,-52 303,-52"/>
<text text-anchor="middle" x="272" y="-37" font-family="Arial" font-size="10.00">Cloud Theater</text>
<text text-anchor="middle" x="272" y="-26" font-family="Arial" font-size="10.00">(Login/Register)</text>
</g>
<!-- Login&#45;&gt;CloudAuth -->
<g id="edge2" class="edge">
<title>Login&#45;&gt;CloudAuth</title>
<path fill="none" stroke="black" d="M113.05,-52.53C119.09,-51.64 125.18,-50.78 131,-50 160.01,-46.13 192.47,-42.38 218.83,-39.49"/>
<polygon fill="black" stroke="black" points="219.42,-42.95 228.98,-38.38 218.66,-35.99 219.42,-42.95"/>
<text text-anchor="middle" x="167.5" y="-52.8" font-family="Arial" font-size="9.00">Credentials</text>
</g>
<!-- Dashboard -->
<g id="node4" class="node">
<title>Dashboard</title>
<path fill="#ffffff" stroke="black" d="M499,-89C499,-89 435,-89 435,-89 429,-89 423,-83 423,-77 423,-77 423,-65 423,-65 423,-59 429,-53 435,-53 435,-53 499,-53 499,-53 505,-53 511,-59 511,-65 511,-65 511,-77 511,-77 511,-83 505,-89 499,-89"/>
<text text-anchor="middle" x="467" y="-74" font-family="Arial" font-size="10.00">Main Dashboard</text>
<text text-anchor="middle" x="467" y="-63" font-family="Arial" font-size="10.00">Recent Scenes</text>
</g>
<!-- LocalAuth&#45;&gt;Dashboard -->
<g id="edge3" class="edge">
<title>LocalAuth&#45;&gt;Dashboard</title>
<path fill="none" stroke="black" d="M322.2,-83.67C349.85,-81.23 384.39,-78.19 412.68,-75.7"/>
<polygon fill="black" stroke="black" points="413.15,-79.17 422.8,-74.81 412.53,-72.2 413.15,-79.17"/>
<text text-anchor="middle" x="372.5" y="-84.8" font-family="Arial" font-size="9.00">Access Granted</text>
</g>
<!-- CloudAuth&#45;&gt;Dashboard -->
<g id="edge4" class="edge">
<title>CloudAuth&#45;&gt;Dashboard</title>
<path fill="none" stroke="black" d="M315.35,-42.12C343.97,-47.6 381.97,-54.89 412.64,-60.77"/>
<polygon fill="black" stroke="black" points="412.26,-64.26 422.74,-62.71 413.58,-57.39 412.26,-64.26"/>
<text text-anchor="middle" x="372.5" y="-61.8" font-family="Arial" font-size="9.00">Access Granted</text>
</g>
<!-- CreateScene -->
<g id="node5" class="node">
<title>CreateScene</title>
<path fill="#ffffff" stroke="black" d="M685,-89C685,-89 609,-89 609,-89 603,-89 597,-83 597,-77 597,-77 597,-65 597,-65 597,-59 603,-53 609,-53 609,-53 685,-53 685,-53 691,-53 697,-59 697,-65 697,-65 697,-77 697,-77 697,-83 691,-89 685,-89"/>
<text text-anchor="middle" x="647" y="-68.5" font-family="Arial" font-size="10.00">Create New Scene</text>
</g>
<!-- Dashboard&#45;&gt;CreateScene -->
<g id="edge6" class="edge">
<title>Dashboard&#45;&gt;CreateScene</title>
<path fill="none" stroke="black" d="M511.09,-71C533.79,-71 561.97,-71 586.7,-71"/>
<polygon fill="black" stroke="black" points="586.7,-74.5 596.7,-71 586.7,-67.5 586.7,-74.5"/>
<text text-anchor="middle" x="554" y="-73.8" font-family="Arial" font-size="9.00">New Project</text>
</g>
<!-- Editor -->
<g id="node6" class="node">
<title>Editor</title>
<path fill="#ffffff" stroke="black" d="M859,-63C859,-63 779,-63 779,-63 773,-63 767,-57 767,-51 767,-51 767,-39 767,-39 767,-33 773,-27 779,-27 779,-27 859,-27 859,-27 865,-27 871,-33 871,-39 871,-39 871,-51 871,-51 871,-57 865,-63 859,-63"/>
<text text-anchor="middle" x="819" y="-48" font-family="Arial" font-size="10.00">Unified Scene View</text>
<text text-anchor="middle" x="819" y="-37" font-family="Arial" font-size="10.00">(Theatre + Timeline)</text>
</g>
<!-- Dashboard&#45;&gt;Editor -->
<g id="edge5" class="edge">
<title>Dashboard&#45;&gt;Editor</title>
<path fill="none" stroke="black" d="M511.23,-55.32C535.97,-47.19 567.81,-38.1 597,-34 644.53,-27.32 657.06,-31.67 705,-34 721.79,-34.82 739.94,-36.31 756.67,-37.94"/>
<polygon fill="black" stroke="black" points="756.59,-41.45 766.89,-38.96 757.29,-34.48 756.59,-41.45"/>
<text text-anchor="middle" x="647" y="-36.8" font-family="Arial" font-size="9.00">Select Scene</text>
</g>
<!-- CreateScene&#45;&gt;Editor -->
<g id="edge7" class="edge">
<title>CreateScene&#45;&gt;Editor</title>
<path fill="none" stroke="black" d="M697.17,-63.48C715.79,-60.63 737.22,-57.35 756.82,-54.36"/>
<polygon fill="black" stroke="black" points="757.51,-57.79 766.87,-52.82 756.46,-50.87 757.51,-57.79"/>
<text text-anchor="middle" x="732" y="-62.8" font-family="Arial" font-size="9.00">Initialize</text>
</g>
<!-- Sprite -->
<g id="node7" class="node">
<title>Sprite</title>
<path fill="#ffffff" stroke="black" d="M1060,-63C1060,-63 983,-63 983,-63 977,-63 971,-57 971,-51 971,-51 971,-39 971,-39 971,-33 977,-27 983,-27 983,-27 1060,-27 1060,-27 1066,-27 1072,-33 1072,-39 1072,-39 1072,-51 1072,-51 1072,-57 1066,-63 1060,-63"/>
<text text-anchor="middle" x="1021.5" y="-42.5" font-family="Arial" font-size="10.00">Sprite Management</text>
</g>
<!-- Editor&#45;&gt;Sprite -->
<g id="edge8" class="edge">
<title>Editor&#45;&gt;Sprite</title>
<path fill="none" stroke="black" d="M871.11,-45C898.39,-45 932.12,-45 960.62,-45"/>
<polygon fill="black" stroke="black" points="960.87,-48.5 970.87,-45 960.87,-41.5 960.87,-48.5"/>
<text text-anchor="middle" x="921" y="-47.8" font-family="Arial" font-size="9.00">Add/Edit Assets</text>
</g>
</g>
</svg>
