<svg width="800" height="400" xmlns="http://www.w3.org/2000/svg">
<rect width="100%" height="100%" fill="white" />
<text x="400.0" y="30" text-anchor="middle" font-family="sans-serif" font-size="20" font-weight="bold">Technical Debt Markers</text>
<line x1="80" y1="320" x2="720" y2="320" stroke="black" stroke-width="2"/>
<line x1="80" y1="320" x2="80" y2="80" stroke="black" stroke-width="2"/>
<line x1="75" y1="320.0" x2="80" y2="320.0" stroke="black"/>
<text x="70" y="325.0" text-anchor="end" font-family="sans-serif" font-size="12">0</text>
<line x1="80" y1="320.0" x2="720" y2="320.0" stroke="#ddd" stroke-dasharray="4"/>
<line x1="75" y1="272.0" x2="80" y2="272.0" stroke="black"/>
<text x="70" y="277.0" text-anchor="end" font-family="sans-serif" font-size="12">1</text>
<line x1="80" y1="272.0" x2="720" y2="272.0" stroke="#ddd" stroke-dasharray="4"/>
<line x1="75" y1="224.0" x2="80" y2="224.0" stroke="black"/>
<text x="70" y="229.0" text-anchor="end" font-family="sans-serif" font-size="12">3</text>
<line x1="80" y1="224.0" x2="720" y2="224.0" stroke="#ddd" stroke-dasharray="4"/>
<line x1="75" y1="176.0" x2="80" y2="176.0" stroke="black"/>
<text x="70" y="181.0" text-anchor="end" font-family="sans-serif" font-size="12">5</text>
<line x1="80" y1="176.0" x2="720" y2="176.0" stroke="#ddd" stroke-dasharray="4"/>
<line x1="75" y1="128.0" x2="80" y2="128.0" stroke="black"/>
<text x="70" y="133.0" text-anchor="end" font-family="sans-serif" font-size="12">7</text>
<line x1="80" y1="128.0" x2="720" y2="128.0" stroke="#ddd" stroke-dasharray="4"/>
<line x1="75" y1="80.0" x2="80" y2="80.0" stroke="black"/>
<text x="70" y="85.0" text-anchor="end" font-family="sans-serif" font-size="12">9</text>
<line x1="80" y1="80.0" x2="720" y2="80.0" stroke="#ddd" stroke-dasharray="4"/>
<line x1="80.0" y1="320" x2="80.0" y2="325" stroke="black"/>
<text x="80.0" y="330" text-anchor="start" font-family="sans-serif" font-size="10" transform="rotate(45, 80.0, 330)">2025-12-24</text>
<line x1="139.53488372093022" y1="320" x2="139.53488372093022" y2="325" stroke="black"/>
<text x="139.53488372093022" y="330" text-anchor="start" font-family="sans-serif" font-size="10" transform="rotate(45, 139.53488372093022, 330)">2025-12-31</text>
<line x1="199.06976744186045" y1="320" x2="199.06976744186045" y2="325" stroke="black"/>
<text x="199.06976744186045" y="330" text-anchor="start" font-family="sans-serif" font-size="10" transform="rotate(45, 199.06976744186045, 330)">2026-01-01</text>
<line x1="258.6046511627907" y1="320" x2="258.6046511627907" y2="325" stroke="black"/>
<text x="258.6046511627907" y="330" text-anchor="start" font-family="sans-serif" font-size="10" transform="rotate(45, 258.6046511627907, 330)">2026-01-02</text>
<line x1="318.1395348837209" y1="320" x2="318.1395348837209" y2="325" stroke="black"/>
<text x="318.1395348837209" y="330" text-anchor="start" font-family="sans-serif" font-size="10" transform="rotate(45, 318.1395348837209, 330)">2026-01-03</text>
<line x1="377.6744186046512" y1="320" x2="377.6744186046512" y2="325" stroke="black"/>
<text x="377.6744186046512" y="330" text-anchor="start" font-family="sans-serif" font-size="10" transform="rotate(45, 377.6744186046512, 330)">2026-01-03</text>
<line x1="437.2093023255814" y1="320" x2="437.2093023255814" y2="325" stroke="black"/>
<text x="437.2093023255814" y="330" text-anchor="start" font-family="sans-serif" font-size="10" transform="rotate(45, 437.2093023255814, 330)">2026-01-04</text>
<line x1="496.74418604651163" y1="320" x2="496.74418604651163" y2="325" stroke="black"/>
<text x="496.74418604651163" y="330" text-anchor="start" font-family="sans-serif" font-size="10" transform="rotate(45, 496.74418604651163, 330)">2026-01-05</text>
<line x1="556.2790697674418" y1="320" x2="556.2790697674418" y2="325" stroke="black"/>
<text x="556.2790697674418" y="330" text-anchor="start" font-family="sans-serif" font-size="10" transform="rotate(45, 556.2790697674418, 330)">2026-01-09</text>
<line x1="615.8139534883721" y1="320" x2="615.8139534883721" y2="325" stroke="black"/>
<text x="615.8139534883721" y="330" text-anchor="start" font-family="sans-serif" font-size="10" transform="rotate(45, 615.8139534883721, 330)">2026-01-09</text>
<line x1="675.3488372093024" y1="320" x2="675.3488372093024" y2="325" stroke="black"/>
<text x="675.3488372093024" y="330" text-anchor="start" font-family="sans-serif" font-size="10" transform="rotate(45, 675.3488372093024, 330)">2026-01-15</text>
<rect x="570" y="80" width="10" height="10" fill="#e91e63"/>
<text x="585" y="90" font-family="sans-serif" font-size="12">TODOs</text>
<rect x="570" y="100" width="10" height="10" fill="#f44336"/>
<text x="585" y="110" font-family="sans-serif" font-size="12">FIXMEs</text>
<polyline points="80.0,320.0 94.88372093023256,320.0 109.76744186046511,320.0 124.65116279069767,320.0 139.53488372093022,320.0 154.4186046511628,320.0 169.30232558139534,293.3333333333333 184.18604651162792,293.3333333333333 199.06976744186045,293.3333333333333 213.95348837209303,293.3333333333333 228.8372093023256,266.6666666666667 243.72093023255815,266.6666666666667 258.6046511627907,213.33333333333334 273.48837209302326,213.33333333333334 288.37209302325584,213.33333333333334 303.25581395348837,213.33333333333334 318.1395348837209,213.33333333333334 333.0232558139535,213.33333333333334 347.90697674418607,213.33333333333334 362.7906976744186,213.33333333333334 377.6744186046512,213.33333333333334 392.5581395348837,213.33333333333334 407.4418604651163,240.0 422.3255813953488,240.0 437.2093023255814,133.33333333333334 452.09302325581393,133.33333333333334 466.9767441860465,133.33333333333334 481.86046511627904,133.33333333333334 496.74418604651163,133.33333333333334 511.62790697674416,133.33333333333334 526.5116279069767,133.33333333333334 541.3953488372092,186.66666666666666 556.2790697674418,186.66666666666666 571.1627906976744,186.66666666666666 586.046511627907,186.66666666666666 600.9302325581396,186.66666666666666 615.8139534883721,160.0 630.6976744186046,160.0 645.5813953488372,160.0 660.4651162790698,213.33333333333334 675.3488372093024,133.33333333333334 690.2325581395348,106.66666666666669 705.1162790697674,106.66666666666669 720.0,106.66666666666669" fill="none" stroke="#e91e63" stroke-width="2"/>
<polyline points="80.0,320.0 94.88372093023256,320.0 109.76744186046511,320.0 124.65116279069767,320.0 139.53488372093022,320.0 154.4186046511628,320.0 169.30232558139534,320.0 184.18604651162792,320.0 199.06976744186045,320.0 213.95348837209303,320.0 228.8372093023256,320.0 243.72093023255815,320.0 258.6046511627907,320.0 273.48837209302326,320.0 288.37209302325584,320.0 303.25581395348837,320.0 318.1395348837209,320.0 333.0232558139535,320.0 347.90697674418607,320.0 362.7906976744186,320.0 377.6744186046512,320.0 392.5581395348837,320.0 407.4418604651163,320.0 422.3255813953488,320.0 437.2093023255814,213.33333333333334 452.09302325581393,213.33333333333334 466.9767441860465,213.33333333333334 481.86046511627904,213.33333333333334 496.74418604651163,213.33333333333334 511.62790697674416,213.33333333333334 526.5116279069767,213.33333333333334 541.3953488372092,240.0 556.2790697674418,240.0 571.1627906976744,240.0 586.046511627907,240.0 600.9302325581396,240.0 615.8139534883721,213.33333333333334 630.6976744186046,213.33333333333334 645.5813953488372,213.33333333333334 660.4651162790698,133.33333333333334 675.3488372093024,80.0 690.2325581395348,80.0 705.1162790697674,80.0 720.0,80.0" fill="none" stroke="#f44336" stroke-width="2"/>
</svg>