<svg width="800" height="400" xmlns="http://www.w3.org/2000/svg">
<rect width="100%" height="100%" fill="white" />
<text x="400.0" y="30" text-anchor="middle" font-family="sans-serif" font-size="20" font-weight="bold">Lines of Code over Time</text>
<line x1="80" y1="320" x2="720" y2="320" stroke="black" stroke-width="2"/>
<line x1="80" y1="320" x2="80" y2="80" stroke="black" stroke-width="2"/>
<line x1="75" y1="320.0" x2="80" y2="320.0" stroke="black"/>
<text x="70" y="325.0" text-anchor="end" font-family="sans-serif" font-size="12">0</text>
<line x1="80" y1="320.0" x2="720" y2="320.0" stroke="#ddd" stroke-dasharray="4"/>
<line x1="75" y1="272.0" x2="80" y2="272.0" stroke="black"/>
<text x="70" y="277.0" text-anchor="end" font-family="sans-serif" font-size="12">5488</text>
<line x1="80" y1="272.0" x2="720" y2="272.0" stroke="#ddd" stroke-dasharray="4"/>
<line x1="75" y1="224.0" x2="80" y2="224.0" stroke="black"/>
<text x="70" y="229.0" text-anchor="end" font-family="sans-serif" font-size="12">10977</text>
<line x1="80" y1="224.0" x2="720" y2="224.0" stroke="#ddd" stroke-dasharray="4"/>
<line x1="75" y1="176.0" x2="80" y2="176.0" stroke="black"/>
<text x="70" y="181.0" text-anchor="end" font-family="sans-serif" font-size="12">16465</text>
<line x1="80" y1="176.0" x2="720" y2="176.0" stroke="#ddd" stroke-dasharray="4"/>
<line x1="75" y1="128.0" x2="80" y2="128.0" stroke="black"/>
<text x="70" y="133.0" text-anchor="end" font-family="sans-serif" font-size="12">21954</text>
<line x1="80" y1="128.0" x2="720" y2="128.0" stroke="#ddd" stroke-dasharray="4"/>
<line x1="75" y1="80.0" x2="80" y2="80.0" stroke="black"/>
<text x="70" y="85.0" text-anchor="end" font-family="sans-serif" font-size="12">27443</text>
<line x1="80" y1="80.0" x2="720" y2="80.0" stroke="#ddd" stroke-dasharray="4"/>
<line x1="80.0" y1="320" x2="80.0" y2="325" stroke="black"/>
<text x="80.0" y="330" text-anchor="start" font-family="sans-serif" font-size="10" transform="rotate(45, 80.0, 330)">2025-12-24</text>
<line x1="139.53488372093022" y1="320" x2="139.53488372093022" y2="325" stroke="black"/>
<text x="139.53488372093022" y="330" text-anchor="start" font-family="sans-serif" font-size="10" transform="rotate(45, 139.53488372093022, 330)">2025-12-31</text>
<line x1="199.06976744186045" y1="320" x2="199.06976744186045" y2="325" stroke="black"/>
<text x="199.06976744186045" y="330" text-anchor="start" font-family="sans-serif" font-size="10" transform="rotate(45, 199.06976744186045, 330)">2026-01-01</text>
<line x1="258.6046511627907" y1="320" x2="258.6046511627907" y2="325" stroke="black"/>
<text x="258.6046511627907" y="330" text-anchor="start" font-family="sans-serif" font-size="10" transform="rotate(45, 258.6046511627907, 330)">2026-01-02</text>
<line x1="318.1395348837209" y1="320" x2="318.1395348837209" y2="325" stroke="black"/>
<text x="318.1395348837209" y="330" text-anchor="start" font-family="sans-serif" font-size="10" transform="rotate(45, 318.1395348837209, 330)">2026-01-03</text>
<line x1="377.6744186046512" y1="320" x2="377.6744186046512" y2="325" stroke="black"/>
<text x="377.6744186046512" y="330" text-anchor="start" font-family="sans-serif" font-size="10" transform="rotate(45, 377.6744186046512, 330)">2026-01-03</text>
<line x1="437.2093023255814" y1="320" x2="437.2093023255814" y2="325" stroke="black"/>
<text x="437.2093023255814" y="330" text-anchor="start" font-family="sans-serif" font-size="10" transform="rotate(45, 437.2093023255814, 330)">2026-01-04</text>
<line x1="496.74418604651163" y1="320" x2="496.74418604651163" y2="325" stroke="black"/>
<text x="496.74418604651163" y="330" text-anchor="start" font-family="sans-serif" font-size="10" transform="rotate(45, 496.74418604651163, 330)">2026-01-05</text>
<line x1="556.2790697674418" y1="320" x2="556.2790697674418" y2="325" stroke="black"/>
<text x="556.2790697674418" y="330" text-anchor="start" font-family="sans-serif" font-size="10" transform="rotate(45, 556.2790697674418, 330)">2026-01-09</text>
<line x1="615.8139534883721" y1="320" x2="615.8139534883721" y2="325" stroke="black"/>
<text x="615.8139534883721" y="330" text-anchor="start" font-family="sans-serif" font-size="10" transform="rotate(45, 615.8139534883721, 330)">2026-01-09</text>
<line x1="675.3488372093024" y1="320" x2="675.3488372093024" y2="325" stroke="black"/>
<text x="675.3488372093024" y="330" text-anchor="start" font-family="sans-serif" font-size="10" transform="rotate(45, 675.3488372093024, 330)">2026-01-15</text>
<rect x="570" y="80" width="10" height="10" fill="#2196F3"/>
<text x="585" y="90" font-family="sans-serif" font-size="12">Total</text>
<rect x="570" y="100" width="10" height="10" fill="#4CAF50"/>
<text x="585" y="110" font-family="sans-serif" font-size="12">Python</text>
<rect x="570" y="120" width="10" height="10" fill="#ff9800"/>
<text x="585" y="130" font-family="sans-serif" font-size="12">TS/JS</text>
<polyline points="80.0,317.57752432314254 94.88372093023256,310.47625988412346 109.76744186046511,310.467514484568 124.65116279069767,296.8072003789673 139.53488372093022,281.3016069671683 154.4186046511628,278.2319717232081 169.30232558139534,273.30831177349415 184.18604651162792,273.20336697882885 199.06976744186045,273.20336697882885 213.95348837209303,270.04627773931423 228.8372093023256,255.31902488794958 243.72093023255815,248.4626316364829 258.6046511627907,220.61727945195497 273.48837209302326,219.1917793244179 288.37209302325584,214.66166235469882 303.25581395348837,211.57453631162775 318.1395348837209,209.23076923076923 333.0232558139535,209.39693182232264 347.90697674418607,198.69256276646138 362.7906976744186,198.50016397624165 377.6744186046512,188.3729912910396 392.5581395348837,182.45235579200525 407.4418604651163,182.43486499289435 422.3255813953488,164.61174069890316 437.2093023255814,153.67999125460042 452.09302325581393,156.11995773056884 466.9767441860465,155.70892395146302 481.86046511627904,155.26290857413548 496.74418604651163,151.4674051670736 511.62790697674416,140.98167110009837 526.5116279069767,134.8511460117334 541.3953488372092,128.58069453048137 556.2790697674418,127.426301789163 571.1627906976744,124.61902853186606 586.046511627907,120.84101592391502 600.9302325581396,118.30485005283677 615.8139534883721,117.64019968662319 630.6976744186046,117.62270888751229 645.5813953488372,117.04551251685311 660.4651162790698,80.96199395109863 675.3488372093024,80.57719637065921 690.2325581395348,80.13992639288708 705.1162790697674,80.0 720.0,80.0" fill="none" stroke="#2196F3" stroke-width="2"/>
<polyline points="80.0,318.2771562875779 94.88372093023256,314.87519586051087 109.76744186046511,314.87519586051087 124.65116279069767,307.90511241482346 139.53488372093022,302.5616732864483 154.4186046511628,299.806872426484 169.30232558139534,299.806872426484 184.18604651162792,299.806872426484 199.06976744186045,299.806872426484 213.95348837209303,297.90912072295305 228.8372093023256,293.16036876434794 243.72093023255815,291.7960864336989 258.6046511627907,282.87577888714793 273.48837209302326,281.79134934227307 288.37209302325584,281.275370768502 303.25581395348837,280.25215902051525 318.1395348837209,279.7274350471887 333.0232558139535,278.9316036876435 347.90697674418607,271.9090478446234 362.7906976744186,271.9090478446234 377.6744186046512,266.22453813358595 392.5581395348837,265.5511423678169 407.4418604651163,265.5511423678169 422.3255813953488,262.665160514521 437.2093023255814,261.8780745545312 452.09302325581393,261.6332033669788 466.9767441860465,261.6332033669788 481.86046511627904,261.2746419852057 496.74418604651163,260.015304449222 511.62790697674416,258.30120613635535 526.5116279069767,258.30120613635535 541.3953488372092,258.2312429399118 556.2790697674418,258.2312429399118 571.1627906976744,258.2312429399118 586.046511627907,258.2312429399118 600.9302325581396,256.4384360310462 615.8139534883721,256.4384360310462 630.6976744186046,256.4384360310462 645.5813953488372,256.3859636337135 660.4651162790698,262.70014211274275 675.3488372093024,262.70014211274275 690.2325581395348,262.70014211274275 705.1162790697674,262.70014211274275 720.0,262.70014211274275" fill="none" stroke="#4CAF50" stroke-width="2"/>
<polyline points="80.0,320.0 94.88372093023256,320.0 109.76744186046511,320.0 124.65116279069767,315.8109536129432 139.53488372093022,306.4796122872864 154.4186046511628,306.4796122872864 169.30232558139534,301.5559523375724 184.18604651162792,301.4510075429071 199.06976744186045,301.4510075429071 213.95348837209303,300.19167000692346 228.8372093023256,291.04398207193094 243.72093023255815,285.55187115111323 258.6046511627907,271.1831796815217 273.48837209302326,270.9295630944139 288.37209302325584,268.50708741755636 303.25581395348837,266.6705535109135 318.1395348837209,266.5830995153591 333.0232558139535,266.5830995153591 347.90697674418607,262.9275225011843 362.7906976744186,262.73512371096456 377.6744186046512,258.0038625514703 392.5581395348837,253.4650001821958 407.4418604651163,253.44750938308493 422.3255813953488,239.9883394672594 437.2093023255814,230.8668877309332 452.09302325581393,233.5604707940094 466.9767441860465,233.1494370149036 481.86046511627904,233.15818241445908 496.74418604651163,231.49655649892503 511.62790697674416,231.4878110993696 526.5116279069767,225.5584302007798 541.3953488372092,220.10130087818388 556.2790697674418,219.10432532886347 571.1627906976744,216.4369784644536 586.046511627907,216.41074226578726 600.9302325581396,216.1221440804577 615.8139534883721,216.1221440804577 630.6976744186046,216.1221440804577 645.5813953488372,216.1221440804577 660.4651162790698,177.26633385562803 675.3488372093024,177.26633385562803 690.2325581395348,177.26633385562803 705.1162790697674,177.26633385562803 720.0,177.26633385562803" fill="none" stroke="#ff9800" stroke-width="2"/>
</svg>